<svg id="arrow-icon" viewBox="0 0 20 32">
    <path fill='currentColor'
        d="M2.412 1.709c-0.32 0.136-0.593 0.323-0.822 0.554l-0 0c-0.462 0.458-0.747 1.092-0.747 1.794s0.286 1.336 0.747 1.794l0 0 10.863 10.838-10.863 10.838c-0.462 0.458-0.747 1.092-0.747 1.794s0.286 1.336 0.747 1.794l0 0c0.458 0.462 1.092 0.747 1.794 0.747s1.336-0.286 1.794-0.747l12.632-12.632c0.462-0.458 0.747-1.092 0.747-1.794s-0.286-1.336-0.747-1.794l-12.632-12.632c-0.458-0.462-1.093-0.748-1.795-0.748-0.35 0-0.684 0.071-0.987 0.2l0.017-0.006z">
    </path>
</svg>