<svg xmlns="http://www.w3.org/2000/svg" width="288" height="42" fill="none">
    <path fill="#20E8DA" fill-opacity=".2"
        d="M0 .39414V42.0003h288V.39401L0 .39413ZM18.6149 33.2999c-2.0242 0-3.6822-1.7836-3.6822-3.9705V10.357c0-2.18429 1.658-3.97048 3.6822-3.97048h10.955c2.0242 0 3.6796 1.78357 3.6796 3.97048v18.9724c0 2.1843-1.6528 3.9705-3.6796 3.9705h-10.955ZM73.22 29.3294c0 2.1843-1.658 3.9705-3.6822 3.9705h-10.955c-2.0242 0-3.6796-1.7836-3.6796-3.9705V10.357c0-2.18429 1.6528-3.97048 3.6796-3.97048h10.955c2.0242 0 3.6822 1.78357 3.6822 3.97048v18.9724Zm39.968 0c0 2.1843-1.653 3.9705-3.68 3.9705H98.5533c-2.0241 0-3.6822-1.7836-3.6822-3.9705V10.357c0-2.18429 1.6581-3.97048 3.6822-3.97048h10.9547c2.024 0 3.68 1.78357 3.68 3.97048v18.9724Zm39.973 0c0 2.1843-1.658 3.9705-3.682 3.9705h-10.955c-2.022 0-3.68-1.7836-3.68-3.9705V10.357c0-2.18429 1.658-3.97048 3.68-3.97048h10.955c2.024 0 3.682 1.78357 3.682 3.97048v18.9724Zm25.333 3.9705c-2.024 0-3.679-1.7836-3.679-3.9705V10.357c0-2.18429 1.653-3.97048 3.679-3.97048h10.955c2.024 0 3.68 1.78357 3.68 3.97048v18.9724c0 2.1843-1.653 3.9705-3.68 3.9705h-10.955Zm50.926 0h-10.96c-2.022 0-3.68-1.7836-3.68-3.9705V10.357c0-2.18429 1.658-3.97048 3.68-3.97048h10.96c2.021 0 3.679 1.78357 3.679 3.97048v18.9724c0 2.1869-1.658 3.9705-3.679 3.9705Zm43.65-3.9705c0 2.1843-1.658 3.9705-3.682 3.9705h-10.955c-2.024 0-3.68-1.7836-3.68-3.9705V10.357c0-2.18429 1.653-3.97048 3.68-3.97048h10.955c2.024 0 3.682 1.78357 3.682 3.97048v18.9724Z"
        opacity=".82" />
    <g fill="#20E8DA" fill-opacity=".2" opacity=".82">
        <path
            d="M14.9327 13.7929H0v9.1667h14.9327v-9.1667ZM54.905 13.7926H33.2486v9.1667H54.905v-9.1667ZM94.8715 13.7929H73.2204v9.1667h21.6511v-9.1667ZM134.844 13.7929h-21.656v9.1667h21.656v-9.1667ZM174.817 13.7926h-21.656v9.1667h21.656v-9.1667ZM214.783 13.7929h-21.657v9.1667h21.657v-9.1667ZM254.756 13.7926H233.1v9.1667h21.656v-9.1667ZM287.997 13.7926h-14.928v9.1667h14.928v-9.1667ZM36.2181 34.004h-7.8952v7.9907h7.8952V34.004ZM14.9327 34.0041H9.58987v7.9907h5.34283v-7.9907ZM.00296 41.9974h5.34281V26.4848H.00296v15.5126ZM43.9503 34.004h-4.9008v7.9907h4.9008V34.004ZM51.6835 34.0041h-4.9008v7.9907h4.9008v-7.9907ZM238.001 34.004H233.1v7.9907h4.901V34.004ZM252.514 34.004h-12.147v7.9907h12.147V34.004ZM142.297 34.004h-4.9v7.9907h4.9V34.004ZM150.864 34.0041h-4.9v7.9907h4.9v-7.9907ZM283.099 34.0041h-3.463v-7.5193h-4.9v7.5193h-4.117v7.9933h4.901v-7.5219h3.136v7.5219h4.901v-7.5219H288v-7.9907h-4.901v7.5193ZM172.283 26.4848h-13.468v7.5193h-4.284v7.9933h4.901v-7.5219h3.666v7.5219h4.901v-7.5219h3.667v7.5219h4.901v-7.9933h-4.284v-7.5193ZM185.134 34.0041h-4.901v7.9907h4.901v-7.9907ZM193.702 34.0041h-4.901v7.9907h4.901v-7.9907ZM91.1108 34.004H86.21v7.9907h4.9008V34.004ZM98.8411 34.004h-4.9009v7.9907h4.9009V34.004ZM106.482 34.0041h-4.901v7.9907h4.901v-7.9907Z" />
    </g>
</svg>