<svg id="icon-camera" xmlns="http://www.w3.org/2000/svg">
    <path fill="#fff"
        d="M47.486 120.088a.75.75 0 1 0-1.27-.796zm-9.213 34.849.645.382.002-.004zm21.234-34.869a.75.75 0 1 0-1.295-.756zm30.557-.626a.75.75 0 0 0-1.27.796zm7.943 35.646-.648.378.002.004zm-19.94-35.626a.75.75 0 1 0-1.295.756zM123.9 66.376a.75.75 0 1 0 0 1.5zm10.138.75h.75v-.75h-.75zm0 28.385v.75h.75v-.75zm-10.138-.75a.75.75 0 1 0 0 1.5zm-68.97-16.58c0-1.464-.759-2.567-1.819-3.277-1.04-.696-2.38-1.03-3.681-1.04-1.3-.011-2.646.3-3.692.995-1.07.71-1.821 1.827-1.821 3.322h1.5c0-.921.437-1.599 1.151-2.073.739-.49 1.771-.753 2.85-.745 1.077.01 2.115.29 2.859.788.724.484 1.153 1.155 1.153 2.03zm29.79 0c0-.875.43-1.546 1.153-2.03.744-.498 1.782-.779 2.86-.787 1.078-.01 2.11.254 2.849.744.714.474 1.151 1.151 1.151 2.073h1.5c0-1.495-.752-2.612-1.822-3.322-1.045-.694-2.39-1.006-3.69-.995-1.302.01-2.642.344-3.682 1.04-1.06.71-1.82 1.813-1.82 3.277zm-23.647 1.735c0 2.24 1.162 3.93 2.82 5.033 1.64 1.09 3.78 1.626 5.878 1.643s4.243-.484 5.888-1.569c1.668-1.1 2.822-2.81 2.822-5.107h-1.5c0 1.719-.834 2.989-2.148 3.855-1.338.883-3.171 1.337-5.05 1.322-1.877-.016-3.715-.5-5.059-1.393-1.324-.88-2.15-2.138-2.15-3.784zm28.823 21.154h19.34v-1.5h-19.34zm19.34 0a2.243 2.243 0 0 1 2.243 2.243h1.5a3.743 3.743 0 0 0-3.743-3.743zm2.243 2.243v2.807h1.5v-2.807zm0 2.807a2.244 2.244 0 0 1-2.243 2.244v1.5a3.743 3.743 0 0 0 3.743-3.744zm-2.243 2.244h-19.34v1.5h19.34zm-19.34 0a2.244 2.244 0 0 1-2.243-2.244h-1.5a3.743 3.743 0 0 0 3.743 3.744zm-2.243-2.244v-2.807h-1.5v2.807zm0-2.807a2.243 2.243 0 0 1 2.243-2.243v-1.5a3.743 3.743 0 0 0-3.743 3.743zM11.165 58.704v45.229h1.5V58.704zm0 45.229c0 9.028 7.318 16.347 16.346 16.347v-1.5c-8.2 0-14.846-6.647-14.846-14.847zM27.51 120.28h80.477v-1.5H27.511zm80.477 0c9.028 0 16.347-7.319 16.347-16.347h-1.5c0 8.2-6.648 14.847-14.847 14.847zm16.347-16.347V58.548h-1.5v45.385zm-88.654.777a4.894 4.894 0 0 1-4.894 4.894v1.5a6.394 6.394 0 0 0 6.394-6.394zm-4.894 4.894a4.894 4.894 0 0 1-4.895-4.894h-1.5a6.394 6.394 0 0 0 6.395 6.394zm-4.895-4.894a4.895 4.895 0 0 1 4.895-4.895v-1.5a6.394 6.394 0 0 0-6.395 6.395zm4.895-4.895a4.895 4.895 0 0 1 4.894 4.895h1.5a6.394 6.394 0 0 0-6.394-6.394zm23.297 4.895a4.894 4.894 0 0 1-4.894 4.894v1.5a6.394 6.394 0 0 0 6.394-6.394zm-4.894 4.894a4.894 4.894 0 0 1-4.895-4.894h-1.5a6.394 6.394 0 0 0 6.395 6.394zm-4.895-4.894a4.895 4.895 0 0 1 4.895-4.895v-1.5a6.394 6.394 0 0 0-6.395 6.395zm4.895-4.895a4.895 4.895 0 0 1 4.894 4.895h1.5a6.394 6.394 0 0 0-6.394-6.394zm-2.975 19.477c-6.814 10.871-19.034 31.046-19.97 32.608l1.286.772c.934-1.558 13.148-21.725 19.955-32.584zM26.245 151.9c-1.012 1.687-1.05 3.314-.32 4.648.707 1.292 2.062 2.179 3.589 2.602 3.058.848 7.176-.06 9.404-3.831l-1.291-.764c-1.827 3.092-5.195 3.848-7.712 3.15-1.26-.35-2.216-1.039-2.674-1.877-.435-.796-.492-1.853.29-3.156zm12.675 3.415 20.587-35.247-1.295-.756-20.587 35.247zm49.873-35.077c6.807 10.859 19.022 31.026 19.955 32.584l1.287-.772c-.936-1.562-13.157-21.737-19.97-32.608zm19.955 32.584c.783 1.304.726 2.361.291 3.157-.459.838-1.414 1.527-2.674 1.876-2.518.699-5.886-.057-7.713-3.149l-1.291.764c2.228 3.77 6.347 4.679 9.405 3.831 1.527-.424 2.882-1.31 3.589-2.603.729-1.334.692-2.961-.32-4.648zm-10.094 1.888-20.587-35.248-1.295.756 20.587 35.248zM123.9 67.876h10.138v-1.5H123.9zm9.388-.75v28.385h1.5V67.126zm.75 27.635H123.9v1.5h10.138zm.532-27.144 10.568-6.216-.761-1.293-10.568 6.217zm10.568-6.216c3.035-1.786 6.862.403 6.862 3.924h1.5c0-4.681-5.088-7.59-9.123-5.217zM152 65.325v32.692h1.5V65.325zm0 32.692c0 3.62-4.022 5.792-7.049 3.807l-.823 1.255c4.025 2.639 9.372-.249 9.372-5.062zm-7.049 3.807-10.35-6.783-.823 1.254 10.35 6.784zm-34.222-67.981c0 5.46-4.426 9.885-9.885 9.885v1.5c6.287 0 11.385-5.097 11.385-11.385zm-9.885 9.885c-5.46 0-9.885-4.426-9.885-9.885h-1.5c0 6.288 5.097 11.385 11.385 11.385zm-9.885-9.885c0-5.46 4.425-9.885 9.885-9.885v-1.5c-6.288 0-11.385 5.097-11.385 11.385zm9.885-9.885c5.459 0 9.885 4.426 9.885 9.885h1.5c0-6.288-5.098-11.385-11.385-11.385zm9.885-20.371c0 5.459-4.426 9.885-9.885 9.885v1.5c6.287 0 11.385-5.098 11.385-11.385zm-9.885 9.885c-5.46 0-9.885-4.426-9.885-9.885h-1.5c0 6.287 5.097 11.385 11.385 11.385zm29.01 20.586c-5.46 0-9.885-4.426-9.885-9.885h-1.5c0 6.288 5.097 11.385 11.385 11.385zm-19.555 22.556c0-5.46 4.425-9.885 9.885-9.885v-1.5c-6.288 0-11.385 5.097-11.385 11.385zm-29.105-9.261c5.459 0 9.885 4.426 9.885 9.885h1.5c0-6.288-5.098-11.385-11.385-11.385zm.527-23.18c0 5.46-4.426 9.885-9.885 9.885v1.5c6.287 0 11.385-5.097 11.385-11.385zm8.728-20.967A32.3 32.3 0 0 1 100.845 1.5V0c-3.804 0-7.462.628-10.876 1.786zm20.226-.652q.054.51.054 1.033h1.5q0-.602-.062-1.188zM100.844 1.5c3.616 0 7.093.593 10.338 1.687l.479-1.421A33.8 33.8 0 0 0 100.844 0zm-9.885 2.087V2.496h-1.5v1.09zm20.223-.4a32.4 32.4 0 0 1 15.449 11.13l1.195-.906a33.9 33.9 0 0 0-16.165-11.645zm15.449 11.13a32.2 32.2 0 0 1 6.557 19.527h1.5a33.7 33.7 0 0 0-6.862-20.433zm-6.662 9.856c0-4.616 3.165-8.495 7.444-9.582l-.369-1.453c-4.929 1.25-8.575 5.716-8.575 11.035zm13.68 9.13a9.85 9.85 0 0 1-3.795.755v1.5c1.547 0 3.025-.31 4.372-.87zm-.461.541v.148l1.5.007v-.155zm0 .148a32.2 32.2 0 0 1-4.647 16.564l1.284.777a33.7 33.7 0 0 0 4.863-17.334zM120.184 46.73a9.88 9.88 0 0 1 8.365 4.616l1.268-.8a11.38 11.38 0 0 0-9.633-5.316zm8.357 3.827a32.46 32.46 0 0 1-15.683 13.327l.558 1.393a33.96 33.96 0 0 0 16.409-13.943zm-15.683 13.327a32.3 32.3 0 0 1-12.014 2.305v1.5c4.441 0 8.684-.856 12.572-2.412zm.776.135a9.86 9.86 0 0 1-3.335-7.404h-1.5c0 3.394 1.486 6.442 3.841 8.527zm-22.555-6.78a9.85 9.85 0 0 1-2.82 6.914L89.33 65.2a11.35 11.35 0 0 0 3.248-7.963zm9.765 8.95a32.3 32.3 0 0 1-11.776-2.21l-.546 1.397a33.8 33.8 0 0 0 12.322 2.313zm-11.776-2.21a32.46 32.46 0 0 1-15.87-13.337l-1.282.78a33.96 33.96 0 0 0 16.606 13.954zM73.166 51.469a9.87 9.87 0 0 1 8.028-4.116v-1.5c-3.809 0-7.18 1.87-9.246 4.74zM68.5 33.844c0-7.337 2.441-14.1 6.557-19.527l-1.195-.906A33.7 33.7 0 0 0 67 33.844zm6.557-19.527a32.4 32.4 0 0 1 15.392-11.11l-.481-1.421A33.9 33.9 0 0 0 73.862 13.41zm-.782.274c4.28 1.086 7.446 4.965 7.446 9.582h1.5c0-5.32-3.648-9.785-8.577-11.036zm-1.078 36.05A32.2 32.2 0 0 1 68.5 33.99l-1.5.007a33.7 33.7 0 0 0 4.916 17.423zM68.5 33.99v-.147H67v.154zm3.336.067a9.9 9.9 0 0 1-3.798-.755l-.576 1.384c1.347.562 2.825.871 4.374.871zm-49.377-.215c0 6.288 5.097 11.385 11.385 11.385v-1.5c-5.46 0-9.885-4.426-9.885-9.885zm11.385 11.385c6.288 0 11.385-5.097 11.385-11.385h-1.5c0 5.46-4.426 9.885-9.885 9.885zM45.23 33.843c0-6.288-5.097-11.385-11.385-11.385v1.5c5.46 0 9.885 4.426 9.885 9.885zM33.844 22.458c-6.288 0-11.385 5.097-11.385 11.385h1.5c0-5.46 4.426-9.885 9.885-9.885zM22.46 3.587c0 6.287 5.097 11.385 11.385 11.385v-1.5c-5.46 0-9.885-4.426-9.885-9.885zm11.385 11.385c6.288 0 11.385-5.098 11.385-11.385h-1.5c0 5.459-4.426 9.885-9.885 9.885zM4.834 35.558c6.288 0 11.385-5.097 11.385-11.385h-1.5c0 5.46-4.426 9.885-9.885 9.885zM25.89 56.614c0-6.288-5.097-11.385-11.385-11.385v1.5c5.46 0 9.885 4.426 9.885 9.885zm27.605-10.761c-6.288 0-11.385 5.097-11.385 11.385h1.5c0-5.46 4.426-9.885 9.885-9.885zm-2.027-21.68c0 6.288 5.097 11.385 11.385 11.385v-1.5c-5.46 0-9.885-4.426-9.885-9.885zM44.72 1.786A33.8 33.8 0 0 0 33.844 0v1.5c3.637 0 7.133.6 10.394 1.706zm-22.2.613q-.06.586-.06 1.188h1.5a10 10 0 0 1 .052-1.033zM33.844 0c-3.782 0-7.42.62-10.817 1.766l.479 1.421A32.3 32.3 0 0 1 33.844 1.5zM45.23 3.587V2.496h-1.5v1.09zM23.027 1.766A33.9 33.9 0 0 0 6.862 13.41l1.195.907a32.4 32.4 0 0 1 15.449-11.13zM6.862 13.41A33.7 33.7 0 0 0 0 33.844h1.5c0-7.336 2.442-14.1 6.557-19.526zm9.357 10.762c0-5.319-3.647-9.784-8.575-11.035l-.37 1.453c4.28 1.087 7.445 4.966 7.445 9.582zM.462 34.688c1.347.56 2.824.87 4.372.87v-1.5a9.9 9.9 0 0 1-3.796-.755zM0 33.844v.155l1.5-.007v-.148zm0 .155c.029 6.34 1.801 12.27 4.863 17.334l1.283-.777A32.2 32.2 0 0 1 1.5 33.992zm14.504 11.23a11.38 11.38 0 0 0-9.634 5.315l1.269.8a9.88 9.88 0 0 1 8.365-4.615zm-9.641 6.104a33.97 33.97 0 0 0 16.41 13.943l.557-1.393A32.46 32.46 0 0 1 6.146 50.556zm16.41 13.943a33.8 33.8 0 0 0 12.571 2.412v-1.5c-4.247 0-8.301-.818-12.014-2.305zm.775-.135a11.36 11.36 0 0 0 3.841-8.527h-1.5a9.86 9.86 0 0 1-3.335 7.404zm20.061-7.903c0 3.1 1.24 5.91 3.248 7.963l1.072-1.05a9.85 9.85 0 0 1-2.82-6.913zm-8.265 10.45c4.346 0 8.503-.82 12.322-2.313l-.546-1.397a32.3 32.3 0 0 1-11.776 2.21zm12.322-2.313A33.96 33.96 0 0 0 62.771 51.42l-1.28-.78A32.46 32.46 0 0 1 45.62 63.978zM62.74 50.593a11.37 11.37 0 0 0-9.246-4.74v1.5a9.87 9.87 0 0 1 8.028 4.116zm4.948-16.749a33.7 33.7 0 0 0-6.862-20.433l-1.195.906a32.2 32.2 0 0 1 6.557 19.527zm-6.862-20.433A33.9 33.9 0 0 0 44.72 1.786l-.482 1.42a32.4 32.4 0 0 1 15.393 11.111zm-.782-.274c-4.93 1.25-8.577 5.717-8.577 11.036h1.5c0-4.617 3.166-8.496 7.446-9.582zm2.727 38.284a33.7 33.7 0 0 0 4.917-17.423l-1.5-.006A32.2 32.2 0 0 1 61.49 50.64zm4.917-17.423v-.154h-1.5v.148zm-4.836 1.56c1.548 0 3.026-.31 4.374-.87l-.577-1.386a9.9 9.9 0 0 1-3.797.756z" />
</svg>