<svg xmlns="http://www.w3.org/2000/svg" width="64" height="64" viewBox="0 -5 32 32">
  <g id="SVGRepo_iconCarrier">
    <g id="Page-1" fill-rule="evenodd" stroke-width="1.1">
      <g id="Icon-Set" transform="translate(-516 -1144)">
        <path id="delete" d="M538.708 1151.28a1.016 1.016 0 0 0-1.427 0l-2.3 2.3-2.239-2.24a1.002 1.002 0 1 0-1.415 1.42l2.239 2.23-2.268 2.27a1.013 1.013 0 0 0 0 1.43c.394.39 1.033.39 1.427 0l2.268-2.27 2.239 2.24a1.002 1.002 0 1 0 1.415-1.42l-2.239-2.23 2.3-2.3c.395-.4.395-1.03 0-1.43Zm7.29 10.72c0 1.1-.896 2-2.002 2h-17.529l-8.151-9.02 8.122-8.98h17.558c1.106 0 2.002.9 2.002 2v14Zm-2.002-18h-17.945c-.28-.02-.566.07-.78.28l-8.986 9.94a.989.989 0 0 0-.287.76c-.015.28.076.56.287.77l8.986 9.94c.196.19.452.29.708.29v.02h18.017a4.002 4.002 0 0 0 4.004-4v-14c0-2.21-1.793-4-4.004-4Z"/>
      </g>
    </g>
  </g>
</svg>
