<svg id="explore-and-enjoy" fill="none" xmlns="http://www.w3.org/2000/svg" viewBox="0 0 61 61">
    <path
        d="M39.4045 17.9313C40.5124 17.9313 41.5749 17.4912 42.3582 16.7079C43.1416 15.9245 43.5817 14.862 43.5817 13.7542C43.5817 12.6463 43.1416 11.5839 42.3582 10.8005C41.5749 10.0171 40.5124 9.57704 39.4045 9.57704C39.4045 8.46919 38.9645 7.40672 38.1811 6.62336C37.3977 5.83999 36.3353 5.3999 35.2274 5.3999C34.1196 5.3999 33.0571 5.83999 32.2737 6.62336C31.4904 7.40672 31.0503 8.46919 31.0503 9.57704C31.0503 8.46919 30.6102 7.40672 29.8268 6.62336C29.0435 5.83999 27.981 5.3999 26.8731 5.3999C25.7653 5.3999 24.7028 5.83999 23.9195 6.62336C23.1361 7.40672 22.696 8.46919 22.696 9.57704C22.696 8.46919 22.2559 7.40672 21.4725 6.62336C20.6892 5.83999 19.6267 5.3999 18.5189 5.3999C17.411 5.3999 16.3485 5.83999 15.5652 6.62336C14.7818 7.40672 14.3417 8.46919 14.3417 9.57704C13.2339 9.57704 12.1714 10.0171 11.388 10.8005C10.6047 11.5839 10.1646 12.6463 10.1646 13.7542C10.1646 14.862 10.6047 15.9245 11.388 16.7079C12.1714 17.4912 13.2339 17.9313 14.3417 17.9313M22.696 47.1713L20.6074 17.9313M31.0503 47.1713L33.1388 17.9313M43.5821 17.9313C44.6264 17.9313 45.4618 18.7667 45.2529 20.0199L39.8227 45.0827C39.6138 46.127 38.3607 47.1713 37.3164 47.1713H16.4307C15.1776 47.1713 14.1333 46.3358 13.9244 45.0827L8.49413 20.0199C8.28528 18.7667 9.1207 17.9313 10.165 17.9313H43.5821Z"
        stroke="white" stroke-width="2.33" stroke-linecap="round" stroke-linejoin="round"></path>
</svg>