<svg width="32" height="32" viewBox="0 0 32 32" fill="none" xmlns="http://www.w3.org/2000/svg">
<path
        d="M15.8477 19C15.052 19 14.2889 18.6839 13.7263 18.1213C13.1637 17.5587 12.8477 16.7956 12.8477 16C12.8477 15.2044 13.1637 14.4413 13.7263 13.8787C14.2889 13.3161 15.052 13 15.8477 13C16.6433 13 17.4064 13.3161 17.969 13.8787C18.5316 14.4413 18.8477 15.2044 18.8477 16C18.8477 16.7956 18.5316 17.5587 17.969 18.1213C17.4064 18.6839 16.6433 19 15.8477 19Z"
        fill="#20C9BC" />
<path fill-rule="evenodd" clip-rule="evenodd"
        d="M15.8474 28.3079C9.13367 28.3079 3.69141 22.7976 3.69141 15.9999C3.69141 9.20218 9.13367 3.69189 15.8474 3.69189C22.5612 3.69189 28.0035 9.20218 28.0035 15.9999C28.0046 18.0952 27.477 20.156 26.4707 21.9869C25.4644 23.8179 24.0128 25.3581 22.2537 26.4617H28.3074V26.9025V27.357V27.7843V28.3079H15.8474ZM17.0631 7.99969C17.0631 7.67326 16.935 7.3602 16.707 7.12938C16.479 6.89856 16.1698 6.76889 15.8474 6.76889C15.525 6.76889 15.2159 6.89856 14.9879 7.12938C14.7599 7.3602 14.6318 7.67326 14.6318 7.99969C14.6318 8.32612 14.7599 8.63917 14.9879 8.86999C15.2159 9.10081 15.525 9.23049 15.8474 9.23049C16.1698 9.23049 16.479 9.10081 16.707 8.86999C16.935 8.63917 17.0631 8.32612 17.0631 7.99969ZM9.16163 15.9999C9.16163 16.3263 9.03356 16.6394 8.80559 16.8702C8.57762 17.101 8.26842 17.2307 7.94603 17.2307C7.62363 17.2307 7.31443 17.101 7.08646 16.8702C6.8585 16.6394 6.73042 16.3263 6.73042 15.9999C6.73042 15.6735 6.8585 15.3604 7.08646 15.1296C7.31443 14.8988 7.62363 14.7691 7.94603 14.7691C8.26842 14.7691 8.57762 14.8988 8.80559 15.1296C9.03356 15.3604 9.16163 15.6735 9.16163 15.9999ZM24.9645 15.9999C24.9645 16.3263 24.8364 16.6394 24.6084 16.8702C24.3805 17.101 24.0713 17.2307 23.7489 17.2307C23.4265 17.2307 23.1173 17.101 22.8893 16.8702C22.6613 16.6394 22.5333 16.3263 22.5333 15.9999C22.5333 15.6735 22.6613 15.3604 22.8893 15.1296C23.1173 14.8988 23.4265 14.7691 23.7489 14.7691C24.0713 14.7691 24.3805 14.8988 24.6084 15.1296C24.8364 15.3604 24.9645 15.6735 24.9645 15.9999ZM15.8474 22.7693C16.1698 22.7693 16.479 22.8989 16.707 23.1298C16.935 23.3606 17.0631 23.6736 17.0631 24.0001C17.0631 24.3265 16.935 24.6396 16.707 24.8704C16.479 25.1012 16.1698 25.2309 15.8474 25.2309C15.525 25.2309 15.2159 25.1012 14.9879 24.8704C14.7599 24.6396 14.6318 24.3265 14.6318 24.0001C14.6318 23.6736 14.7599 23.3606 14.9879 23.1298C15.2159 22.8989 15.525 22.7693 15.8474 22.7693ZM11.2889 15.9999C11.2889 17.224 11.7692 18.398 12.6241 19.2635C13.479 20.1291 14.6385 20.6154 15.8474 20.6154C17.0564 20.6154 18.2159 20.1291 19.0708 19.2635C19.9257 18.398 20.406 17.224 20.406 15.9999C20.406 14.7758 19.9257 13.6018 19.0708 12.7362C18.2159 11.8707 17.0564 11.3844 15.8474 11.3844C14.6385 11.3844 13.479 11.8707 12.6241 12.7362C11.7692 13.6018 11.2889 14.7758 11.2889 15.9999Z"
        fill="#20C9BC" />
</svg>
