<svg id="film-picks" fill="none" xmlns="http://www.w3.org/2000/svg" viewBox="0 0 60 60">
    <path d="M15.5 27L17.5257 32.4743L23 34.5L17.5257 36.5257L15.5 42L13.4743 36.5257L8 34.5L13.4743 32.4743L15.5 27Z"
        fill="white"></path>
    <path d="M31.5 25L32.9855 29.0145L37 30.5L32.9855 31.9855L31.5 36L30.0145 31.9855L26 30.5L30.0145 29.0145L31.5 25Z"
        fill="white"></path>
    <path fill-rule="evenodd" clip-rule="evenodd"
        d="M0 16.5C0 16.2349 0.0257958 15.9758 0.0750145 15.725C0.435893 13.8868 2.056 12.5 4 12.5H41C42.944 12.5 44.5641 13.8868 44.925 15.725C44.9742 15.9758 45 16.2349 45 16.5V43.5C45 45.7091 43.2091 47.5 41 47.5H4C1.79086 47.5 0 45.7091 0 43.5V16.5ZM2 21.5H43V43.5C43 44.6046 42.1046 45.5 41 45.5H4C2.89543 45.5 2 44.6046 2 43.5V21.5ZM17.4561 14.2697L20.1514 19.6603H27.5437L24.6944 14.2697H17.4561ZM33.1943 19.6603L30.499 14.2697H37.7373L40.5866 19.6603H33.1943ZM4.41309 14.2697L7.1084 19.6603H14.5007L11.6514 14.2697H4.41309Z"
        fill="white"></path>
</svg>