<svg id="icon-heart" fill="currentColor" viewBox="0 0 18 16">
    <path
        d="M13.018 0C11.358 0 9.906.74 9 1.991 8.094.741 6.642 0 4.982 0a4.9 4.9 0 0 0-3.521 1.515A5.27 5.27 0 0 0 0 5.168c0 5.835 8.34 10.557 8.695 10.752a.62.62 0 0 0 .61 0C9.66 15.725 18 11.003 18 5.168a5.27 5.27 0 0 0-1.46-3.653A4.9 4.9 0 0 0 13.017 0M9 14.57c-1.467-.887-7.714-4.927-7.714-9.402a3.91 3.91 0 0 1 1.084-2.71 3.64 3.64 0 0 1 2.612-1.124c1.563 0 2.875.863 3.423 2.25.049.122.131.227.237.3a.63.63 0 0 0 .716 0 .66.66 0 0 0 .237-.3c.548-1.39 1.86-2.25 3.423-2.25.98.001 1.92.405 2.612 1.124a3.91 3.91 0 0 1 1.084 2.71c0 4.468-6.248 8.514-7.714 9.402" />
</svg>