<svg id="instagram-icon" viewBox="0 0 30 31">
    <path fill-rule="evenodd" clip-rule="evenodd"
        d="M0 13.3739C0 7.08886 -2.38419e-07 3.94553 1.95333 1.99386C3.905 0.0405271 7.04833 0.0405273 13.3333 0.0405273H16.6667C22.9517 0.0405273 26.095 0.0405271 28.0467 1.99386C30 3.94553 30 7.08886 30 13.3739V16.7072C30 22.9922 30 26.1355 28.0467 28.0872C26.095 30.0405 22.9517 30.0405 16.6667 30.0405H13.3333C7.04833 30.0405 3.905 30.0405 1.95333 28.0872C-2.38419e-07 26.1355 0 22.9922 0 16.7072V13.3739ZM25 7.54053C25 8.20357 24.7366 8.83945 24.2678 9.30829C23.7989 9.77713 23.163 10.0405 22.5 10.0405C21.837 10.0405 21.2011 9.77713 20.7322 9.30829C20.2634 8.83945 20 8.20357 20 7.54053C20 6.87749 20.2634 6.2416 20.7322 5.77276C21.2011 5.30392 21.837 5.04053 22.5 5.04053C23.163 5.04053 23.7989 5.30392 24.2678 5.77276C24.7366 6.2416 25 6.87749 25 7.54053ZM18.3333 16.7072C18.3333 17.5912 17.9821 18.4391 17.357 19.0642C16.7319 19.6893 15.8841 20.0405 15 20.0405C14.1159 20.0405 13.2681 19.6893 12.643 19.0642C12.0179 18.4391 11.6667 17.5912 11.6667 16.7072C11.6667 15.8231 12.0179 14.9753 12.643 14.3502C13.2681 13.7251 14.1159 13.3739 15 13.3739C15.8841 13.3739 16.7319 13.7251 17.357 14.3502C17.9821 14.9753 18.3333 15.8231 18.3333 16.7072ZM21.6667 16.7072C21.6667 18.4753 20.9643 20.171 19.714 21.4212C18.4638 22.6715 16.7681 23.3739 15 23.3739C13.2319 23.3739 11.5362 22.6715 10.286 21.4212C9.03571 20.171 8.33333 18.4753 8.33333 16.7072C8.33333 14.9391 9.03571 13.2434 10.286 11.9931C11.5362 10.7429 13.2319 10.0405 15 10.0405C16.7681 10.0405 18.4638 10.7429 19.714 11.9931C20.9643 13.2434 21.6667 14.9391 21.6667 16.7072Z" />
</svg>