<svg id="mail-icon" viewBox="0 0 34 28">
    <path
        d="M30.3335 0.707275H3.66683C1.8335 0.707275 0.350163 2.20728 0.350163 4.04061L0.333496 24.0406C0.333496 25.8739 1.8335 27.3739 3.66683 27.3739H30.3335C32.1668 27.3739 33.6668 25.8739 33.6668 24.0406V4.04061C33.6668 2.20728 32.1668 0.707275 30.3335 0.707275ZM29.6668 7.79061L17.8835 15.1573C17.3502 15.4906 16.6502 15.4906 16.1168 15.1573L4.3335 7.79061C4.16638 7.69679 4.02003 7.57004 3.90331 7.41803C3.78659 7.26602 3.70193 7.09191 3.65445 6.90623C3.60698 6.72055 3.59767 6.52717 3.62709 6.33779C3.65651 6.14841 3.72406 5.96696 3.82563 5.80444C3.92721 5.64192 4.0607 5.5017 4.21804 5.39227C4.37538 5.28283 4.55328 5.20646 4.74099 5.16777C4.9287 5.12909 5.1223 5.12889 5.31009 5.16719C5.49787 5.20549 5.67594 5.2815 5.8335 5.39061L17.0002 12.3739L28.1668 5.39061C28.3244 5.2815 28.5025 5.20549 28.6902 5.16719C28.878 5.12889 29.0716 5.12909 29.2593 5.16777C29.447 5.20646 29.6249 5.28283 29.7823 5.39227C29.9396 5.5017 30.0731 5.64192 30.1747 5.80444C30.2763 5.96696 30.3438 6.14841 30.3732 6.33779C30.4027 6.52717 30.3933 6.72055 30.3459 6.90623C30.2984 7.09191 30.2137 7.26602 30.097 7.41803C29.9803 7.57004 29.834 7.69679 29.6668 7.79061Z" />
</svg>