<svg id="main-logo" viewBox="0 0 48 48" xmlns="http://www.w3.org/2000/svg" fill="none">
    <path fill="#fff" d="M24 28.5a4.5 4.5 0 1 1 0-9 4.5 4.5 0 0 1 0 9" />
    <path fill="#fff" fill-rule="evenodd"
        d="M23.512 44c-11.046 0-20-8.954-20-20s8.954-20 20-20 20 8.954 20 20a19.99 19.99 0 0 1-9.46 17h9.96v3zm2-33a2 2 0 1 0-4 0 2 2 0 0 0 4 0m-13 13a2 2 0 1 1-4 0 2 2 0 0 1 4 0m26 0a2 2 0 1 1-4 0 2 2 0 0 1 4 0m-15 11a2 2 0 1 1 0 4 2 2 0 0 1 0-4m-7.5-11a7.5 7.5 0 1 0 15 0 7.5 7.5 0 0 0-15 0"
        clip-rule="evenodd" />
</svg>
