<svg width="36" height="36" viewBox="0 0 36 36" fill="none" xmlns="http://www.w3.org/2000/svg">
<path d="M17.6074 21.5C16.6792 21.5 15.7889 21.1313 15.1325 20.4749C14.4762 19.8185 14.1074 18.9283 14.1074 18C14.1074 17.0717 14.4762 16.1815 15.1325 15.5251C15.7889 14.8687 16.6792 14.5 17.6074 14.5C18.5357 14.5 19.4259 14.8687 20.0823 15.5251C20.7387 16.1815 21.1074 17.0717 21.1074 18C21.1074 18.9283 20.7387 19.8185 20.0823 20.4749C19.4259 21.1313 18.5357 21.5 17.6074 21.5Z" fill="white"/>
<path fill-rule="evenodd" clip-rule="evenodd" d="M17.6348 33C9.35028 33 2.63478 26.2845 2.63478 18C2.63478 9.7155 9.35028 3 17.6348 3C25.9193 3 32.6348 9.7155 32.6348 18C32.6361 20.5536 31.9851 23.0652 30.7434 25.2966C29.5017 27.5279 27.7105 29.4051 25.5398 30.75H33.0098V31.2873V31.8411V32.3619V33H17.6348ZM19.1348 8.25C19.1348 7.85218 18.9767 7.47064 18.6954 7.18934C18.4141 6.90804 18.0326 6.75 17.6348 6.75C17.237 6.75 16.8554 6.90804 16.5741 7.18934C16.2928 7.47064 16.1348 7.85218 16.1348 8.25C16.1348 8.64782 16.2928 9.02936 16.5741 9.31066C16.8554 9.59196 17.237 9.75 17.6348 9.75C18.0326 9.75 18.4141 9.59196 18.6954 9.31066C18.9767 9.02936 19.1348 8.64782 19.1348 8.25ZM9.38478 18C9.38478 18.3978 9.22674 18.7794 8.94544 19.0607C8.66413 19.342 8.2826 19.5 7.88478 19.5C7.48695 19.5 7.10542 19.342 6.82412 19.0607C6.54281 18.7794 6.38478 18.3978 6.38478 18C6.38478 17.6022 6.54281 17.2206 6.82412 16.9393C7.10542 16.658 7.48695 16.5 7.88478 16.5C8.2826 16.5 8.66413 16.658 8.94544 16.9393C9.22674 17.2206 9.38478 17.6022 9.38478 18ZM28.8848 18C28.8848 18.3978 28.7267 18.7794 28.4454 19.0607C28.1641 19.342 27.7826 19.5 27.3848 19.5C26.9869 19.5 26.6054 19.342 26.3241 19.0607C26.0428 18.7794 25.8848 18.3978 25.8848 18C25.8848 17.6022 26.0428 17.2206 26.3241 16.9393C26.6054 16.658 26.9869 16.5 27.3848 16.5C27.7826 16.5 28.1641 16.658 28.4454 16.9393C28.7267 17.2206 28.8848 17.6022 28.8848 18ZM17.6348 26.25C18.0326 26.25 18.4141 26.408 18.6954 26.6893C18.9767 26.9706 19.1348 27.3522 19.1348 27.75C19.1348 28.1478 18.9767 28.5294 18.6954 28.8107C18.4141 29.092 18.0326 29.25 17.6348 29.25C17.237 29.25 16.8554 29.092 16.5741 28.8107C16.2928 28.5294 16.1348 28.1478 16.1348 27.75C16.1348 27.3522 16.2928 26.9706 16.5741 26.6893C16.8554 26.408 17.237 26.25 17.6348 26.25ZM12.0098 18C12.0098 19.4918 12.6024 20.9226 13.6573 21.9775C14.7122 23.0324 16.1429 23.625 17.6348 23.625C19.1266 23.625 20.5574 23.0324 21.6123 21.9775C22.6671 20.9226 23.2598 19.4918 23.2598 18C23.2598 16.5082 22.6671 15.0774 21.6123 14.0225C20.5574 12.9676 19.1266 12.375 17.6348 12.375C16.1429 12.375 14.7122 12.9676 13.6573 14.0225C12.6024 15.0774 12.0098 16.5082 12.0098 18Z" fill="white"/>
</svg>
