<svg aria-hidden="true" width="0" height="0"
    version="1.1"
    xmlns="http://www.w3.org/2000/svg" xmlns:xlink="http://www.w3.org/1999/xlink">
    <defs>
        <symbol id="icon-arrow" viewBox="0 0 20 32">
            <path fill='currentColor'
                d="M2.412 1.709c-0.32 0.136-0.593 0.323-0.822 0.554l-0 0c-0.462 0.458-0.747 1.092-0.747 1.794s0.286 1.336 0.747 1.794l0 0 10.863 10.838-10.863 10.838c-0.462 0.458-0.747 1.092-0.747 1.794s0.286 1.336 0.747 1.794l0 0c0.458 0.462 1.092 0.747 1.794 0.747s1.336-0.286 1.794-0.747l12.632-12.632c0.462-0.458 0.747-1.092 0.747-1.794s-0.286-1.336-0.747-1.794l-12.632-12.632c-0.458-0.462-1.093-0.748-1.795-0.748-0.35 0-0.684 0.071-0.987 0.2l0.017-0.006z">
            </path>
        </symbol>
        <symbol id="icon-camera" viewBox="0 0 154 160">
            <path fill="#fff"
                d="M47.486 120.088a.75.75 0 1 0-1.27-.796zm-9.213 34.849.645.382.002-.004zm21.234-34.869a.75.75 0 1 0-1.295-.756zm30.557-.626a.75.75 0 0 0-1.27.796zm7.943 35.646-.648.378.002.004zm-19.94-35.626a.75.75 0 1 0-1.295.756zM123.9 66.376a.75.75 0 1 0 0 1.5zm10.138.75h.75v-.75h-.75zm0 28.385v.75h.75v-.75zm-10.138-.75a.75.75 0 1 0 0 1.5zm-68.97-16.58c0-1.464-.759-2.567-1.819-3.277-1.04-.696-2.38-1.03-3.681-1.04-1.3-.011-2.646.3-3.692.995-1.07.71-1.821 1.827-1.821 3.322h1.5c0-.921.437-1.599 1.151-2.073.739-.49 1.771-.753 2.85-.745 1.077.01 2.115.29 2.859.788.724.484 1.153 1.155 1.153 2.03zm29.79 0c0-.875.43-1.546 1.153-2.03.744-.498 1.782-.779 2.86-.787 1.078-.01 2.11.254 2.849.744.714.474 1.151 1.151 1.151 2.073h1.5c0-1.495-.752-2.612-1.822-3.322-1.045-.694-2.39-1.006-3.69-.995-1.302.01-2.642.344-3.682 1.04-1.06.71-1.82 1.813-1.82 3.277zm-23.647 1.735c0 2.24 1.162 3.93 2.82 5.033 1.64 1.09 3.78 1.626 5.878 1.643s4.243-.484 5.888-1.569c1.668-1.1 2.822-2.81 2.822-5.107h-1.5c0 1.719-.834 2.989-2.148 3.855-1.338.883-3.171 1.337-5.05 1.322-1.877-.016-3.715-.5-5.059-1.393-1.324-.88-2.15-2.138-2.15-3.784zm28.823 21.154h19.34v-1.5h-19.34zm19.34 0a2.243 2.243 0 0 1 2.243 2.243h1.5a3.743 3.743 0 0 0-3.743-3.743zm2.243 2.243v2.807h1.5v-2.807zm0 2.807a2.244 2.244 0 0 1-2.243 2.244v1.5a3.743 3.743 0 0 0 3.743-3.744zm-2.243 2.244h-19.34v1.5h19.34zm-19.34 0a2.244 2.244 0 0 1-2.243-2.244h-1.5a3.743 3.743 0 0 0 3.743 3.744zm-2.243-2.244v-2.807h-1.5v2.807zm0-2.807a2.243 2.243 0 0 1 2.243-2.243v-1.5a3.743 3.743 0 0 0-3.743 3.743zM11.165 58.704v45.229h1.5V58.704zm0 45.229c0 9.028 7.318 16.347 16.346 16.347v-1.5c-8.2 0-14.846-6.647-14.846-14.847zM27.51 120.28h80.477v-1.5H27.511zm80.477 0c9.028 0 16.347-7.319 16.347-16.347h-1.5c0 8.2-6.648 14.847-14.847 14.847zm16.347-16.347V58.548h-1.5v45.385zm-88.654.777a4.894 4.894 0 0 1-4.894 4.894v1.5a6.394 6.394 0 0 0 6.394-6.394zm-4.894 4.894a4.894 4.894 0 0 1-4.895-4.894h-1.5a6.394 6.394 0 0 0 6.395 6.394zm-4.895-4.894a4.895 4.895 0 0 1 4.895-4.895v-1.5a6.394 6.394 0 0 0-6.395 6.395zm4.895-4.895a4.895 4.895 0 0 1 4.894 4.895h1.5a6.394 6.394 0 0 0-6.394-6.394zm23.297 4.895a4.894 4.894 0 0 1-4.894 4.894v1.5a6.394 6.394 0 0 0 6.394-6.394zm-4.894 4.894a4.894 4.894 0 0 1-4.895-4.894h-1.5a6.394 6.394 0 0 0 6.395 6.394zm-4.895-4.894a4.895 4.895 0 0 1 4.895-4.895v-1.5a6.394 6.394 0 0 0-6.395 6.395zm4.895-4.895a4.895 4.895 0 0 1 4.894 4.895h1.5a6.394 6.394 0 0 0-6.394-6.394zm-2.975 19.477c-6.814 10.871-19.034 31.046-19.97 32.608l1.286.772c.934-1.558 13.148-21.725 19.955-32.584zM26.245 151.9c-1.012 1.687-1.05 3.314-.32 4.648.707 1.292 2.062 2.179 3.589 2.602 3.058.848 7.176-.06 9.404-3.831l-1.291-.764c-1.827 3.092-5.195 3.848-7.712 3.15-1.26-.35-2.216-1.039-2.674-1.877-.435-.796-.492-1.853.29-3.156zm12.675 3.415 20.587-35.247-1.295-.756-20.587 35.247zm49.873-35.077c6.807 10.859 19.022 31.026 19.955 32.584l1.287-.772c-.936-1.562-13.157-21.737-19.97-32.608zm19.955 32.584c.783 1.304.726 2.361.291 3.157-.459.838-1.414 1.527-2.674 1.876-2.518.699-5.886-.057-7.713-3.149l-1.291.764c2.228 3.77 6.347 4.679 9.405 3.831 1.527-.424 2.882-1.31 3.589-2.603.729-1.334.692-2.961-.32-4.648zm-10.094 1.888-20.587-35.248-1.295.756 20.587 35.248zM123.9 67.876h10.138v-1.5H123.9zm9.388-.75v28.385h1.5V67.126zm.75 27.635H123.9v1.5h10.138zm.532-27.144 10.568-6.216-.761-1.293-10.568 6.217zm10.568-6.216c3.035-1.786 6.862.403 6.862 3.924h1.5c0-4.681-5.088-7.59-9.123-5.217zM152 65.325v32.692h1.5V65.325zm0 32.692c0 3.62-4.022 5.792-7.049 3.807l-.823 1.255c4.025 2.639 9.372-.249 9.372-5.062zm-7.049 3.807-10.35-6.783-.823 1.254 10.35 6.784zm-34.222-67.981c0 5.46-4.426 9.885-9.885 9.885v1.5c6.287 0 11.385-5.097 11.385-11.385zm-9.885 9.885c-5.46 0-9.885-4.426-9.885-9.885h-1.5c0 6.288 5.097 11.385 11.385 11.385zm-9.885-9.885c0-5.46 4.425-9.885 9.885-9.885v-1.5c-6.288 0-11.385 5.097-11.385 11.385zm9.885-9.885c5.459 0 9.885 4.426 9.885 9.885h1.5c0-6.288-5.098-11.385-11.385-11.385zm9.885-20.371c0 5.459-4.426 9.885-9.885 9.885v1.5c6.287 0 11.385-5.098 11.385-11.385zm-9.885 9.885c-5.46 0-9.885-4.426-9.885-9.885h-1.5c0 6.287 5.097 11.385 11.385 11.385zm29.01 20.586c-5.46 0-9.885-4.426-9.885-9.885h-1.5c0 6.288 5.097 11.385 11.385 11.385zm-19.555 22.556c0-5.46 4.425-9.885 9.885-9.885v-1.5c-6.288 0-11.385 5.097-11.385 11.385zm-29.105-9.261c5.459 0 9.885 4.426 9.885 9.885h1.5c0-6.288-5.098-11.385-11.385-11.385zm.527-23.18c0 5.46-4.426 9.885-9.885 9.885v1.5c6.287 0 11.385-5.097 11.385-11.385zm8.728-20.967A32.3 32.3 0 0 1 100.845 1.5V0c-3.804 0-7.462.628-10.876 1.786zm20.226-.652q.054.51.054 1.033h1.5q0-.602-.062-1.188zM100.844 1.5c3.616 0 7.093.593 10.338 1.687l.479-1.421A33.8 33.8 0 0 0 100.844 0zm-9.885 2.087V2.496h-1.5v1.09zm20.223-.4a32.4 32.4 0 0 1 15.449 11.13l1.195-.906a33.9 33.9 0 0 0-16.165-11.645zm15.449 11.13a32.2 32.2 0 0 1 6.557 19.527h1.5a33.7 33.7 0 0 0-6.862-20.433zm-6.662 9.856c0-4.616 3.165-8.495 7.444-9.582l-.369-1.453c-4.929 1.25-8.575 5.716-8.575 11.035zm13.68 9.13a9.85 9.85 0 0 1-3.795.755v1.5c1.547 0 3.025-.31 4.372-.87zm-.461.541v.148l1.5.007v-.155zm0 .148a32.2 32.2 0 0 1-4.647 16.564l1.284.777a33.7 33.7 0 0 0 4.863-17.334zM120.184 46.73a9.88 9.88 0 0 1 8.365 4.616l1.268-.8a11.38 11.38 0 0 0-9.633-5.316zm8.357 3.827a32.46 32.46 0 0 1-15.683 13.327l.558 1.393a33.96 33.96 0 0 0 16.409-13.943zm-15.683 13.327a32.3 32.3 0 0 1-12.014 2.305v1.5c4.441 0 8.684-.856 12.572-2.412zm.776.135a9.86 9.86 0 0 1-3.335-7.404h-1.5c0 3.394 1.486 6.442 3.841 8.527zm-22.555-6.78a9.85 9.85 0 0 1-2.82 6.914L89.33 65.2a11.35 11.35 0 0 0 3.248-7.963zm9.765 8.95a32.3 32.3 0 0 1-11.776-2.21l-.546 1.397a33.8 33.8 0 0 0 12.322 2.313zm-11.776-2.21a32.46 32.46 0 0 1-15.87-13.337l-1.282.78a33.96 33.96 0 0 0 16.606 13.954zM73.166 51.469a9.87 9.87 0 0 1 8.028-4.116v-1.5c-3.809 0-7.18 1.87-9.246 4.74zM68.5 33.844c0-7.337 2.441-14.1 6.557-19.527l-1.195-.906A33.7 33.7 0 0 0 67 33.844zm6.557-19.527a32.4 32.4 0 0 1 15.392-11.11l-.481-1.421A33.9 33.9 0 0 0 73.862 13.41zm-.782.274c4.28 1.086 7.446 4.965 7.446 9.582h1.5c0-5.32-3.648-9.785-8.577-11.036zm-1.078 36.05A32.2 32.2 0 0 1 68.5 33.99l-1.5.007a33.7 33.7 0 0 0 4.916 17.423zM68.5 33.99v-.147H67v.154zm3.336.067a9.9 9.9 0 0 1-3.798-.755l-.576 1.384c1.347.562 2.825.871 4.374.871zm-49.377-.215c0 6.288 5.097 11.385 11.385 11.385v-1.5c-5.46 0-9.885-4.426-9.885-9.885zm11.385 11.385c6.288 0 11.385-5.097 11.385-11.385h-1.5c0 5.46-4.426 9.885-9.885 9.885zM45.23 33.843c0-6.288-5.097-11.385-11.385-11.385v1.5c5.46 0 9.885 4.426 9.885 9.885zM33.844 22.458c-6.288 0-11.385 5.097-11.385 11.385h1.5c0-5.46 4.426-9.885 9.885-9.885zM22.46 3.587c0 6.287 5.097 11.385 11.385 11.385v-1.5c-5.46 0-9.885-4.426-9.885-9.885zm11.385 11.385c6.288 0 11.385-5.098 11.385-11.385h-1.5c0 5.459-4.426 9.885-9.885 9.885zM4.834 35.558c6.288 0 11.385-5.097 11.385-11.385h-1.5c0 5.46-4.426 9.885-9.885 9.885zM25.89 56.614c0-6.288-5.097-11.385-11.385-11.385v1.5c5.46 0 9.885 4.426 9.885 9.885zm27.605-10.761c-6.288 0-11.385 5.097-11.385 11.385h1.5c0-5.46 4.426-9.885 9.885-9.885zm-2.027-21.68c0 6.288 5.097 11.385 11.385 11.385v-1.5c-5.46 0-9.885-4.426-9.885-9.885zM44.72 1.786A33.8 33.8 0 0 0 33.844 0v1.5c3.637 0 7.133.6 10.394 1.706zm-22.2.613q-.06.586-.06 1.188h1.5a10 10 0 0 1 .052-1.033zM33.844 0c-3.782 0-7.42.62-10.817 1.766l.479 1.421A32.3 32.3 0 0 1 33.844 1.5zM45.23 3.587V2.496h-1.5v1.09zM23.027 1.766A33.9 33.9 0 0 0 6.862 13.41l1.195.907a32.4 32.4 0 0 1 15.449-11.13zM6.862 13.41A33.7 33.7 0 0 0 0 33.844h1.5c0-7.336 2.442-14.1 6.557-19.526zm9.357 10.762c0-5.319-3.647-9.784-8.575-11.035l-.37 1.453c4.28 1.087 7.445 4.966 7.445 9.582zM.462 34.688c1.347.56 2.824.87 4.372.87v-1.5a9.9 9.9 0 0 1-3.796-.755zM0 33.844v.155l1.5-.007v-.148zm0 .155c.029 6.34 1.801 12.27 4.863 17.334l1.283-.777A32.2 32.2 0 0 1 1.5 33.992zm14.504 11.23a11.38 11.38 0 0 0-9.634 5.315l1.269.8a9.88 9.88 0 0 1 8.365-4.615zm-9.641 6.104a33.97 33.97 0 0 0 16.41 13.943l.557-1.393A32.46 32.46 0 0 1 6.146 50.556zm16.41 13.943a33.8 33.8 0 0 0 12.571 2.412v-1.5c-4.247 0-8.301-.818-12.014-2.305zm.775-.135a11.36 11.36 0 0 0 3.841-8.527h-1.5a9.86 9.86 0 0 1-3.335 7.404zm20.061-7.903c0 3.1 1.24 5.91 3.248 7.963l1.072-1.05a9.85 9.85 0 0 1-2.82-6.913zm-8.265 10.45c4.346 0 8.503-.82 12.322-2.313l-.546-1.397a32.3 32.3 0 0 1-11.776 2.21zm12.322-2.313A33.96 33.96 0 0 0 62.771 51.42l-1.28-.78A32.46 32.46 0 0 1 45.62 63.978zM62.74 50.593a11.37 11.37 0 0 0-9.246-4.74v1.5a9.87 9.87 0 0 1 8.028 4.116zm4.948-16.749a33.7 33.7 0 0 0-6.862-20.433l-1.195.906a32.2 32.2 0 0 1 6.557 19.527zm-6.862-20.433A33.9 33.9 0 0 0 44.72 1.786l-.482 1.42a32.4 32.4 0 0 1 15.393 11.111zm-.782-.274c-4.93 1.25-8.577 5.717-8.577 11.036h1.5c0-4.617 3.166-8.496 7.446-9.582zm2.727 38.284a33.7 33.7 0 0 0 4.917-17.423l-1.5-.006A32.2 32.2 0 0 1 61.49 50.64zm4.917-17.423v-.154h-1.5v.148zm-4.836 1.56c1.548 0 3.026-.31 4.374-.87l-.577-1.386a9.9 9.9 0 0 1-3.797.756z" />
        </symbol>
        <symbol id="cross" viewBox="0 0 32 32">
            <path fill="currentColor"
                d="M28.336 0.392c0.237-0.219 0.555-0.353 0.904-0.353 0.736 0 1.333 0.597 1.333 1.333 0 0.348-0.134 0.666-0.352 0.903l0.001-0.001-13.029 13.040 13.029 13.040c0.251 0.243 0.407 0.583 0.407 0.959 0 0.736-0.597 1.333-1.333 1.333-0.376 0-0.716-0.156-0.959-0.407l-13.030-13.040-13.029 13.040c-0.241 0.242-0.575 0.391-0.944 0.391-0.737 0-1.334-0.597-1.334-1.334 0-0.368 0.149-0.701 0.39-0.943l13.032-13.040-13.032-13.040c-0.231-0.239-0.373-0.566-0.373-0.925 0-0.736 0.597-1.333 1.333-1.333 0.361 0 0.688 0.143 0.928 0.376l13.029 13.037z">
            </path>
        </symbol>
        <symbol id="icon-facebook" viewBox="0 0 34 34">
            <path fill-rule="evenodd"
                d="M18.694 33.06a16.25 16.25 0 0 0 9.69-4.682 16.5 16.5 0 0 0 3.533-5.282 16.246 16.246 0 1 0-16.866 9.963V21.111h-3.406a1.821 1.821 0 1 1 0-3.643h3.406v-5.902a4.553 4.553 0 0 1 4.553-4.553h3.097a1.821 1.821 0 0 1 0 3.643h-2.186a1.82 1.82 0 0 0-1.821 1.821v4.99h3.424a1.822 1.822 0 0 1 0 3.644h-3.424z"
                clip-rule="evenodd" />
        </symbol>
        <symbol id="icon-facebook-sign_in" viewBox="0 0 32 32">
            <path d="M0 0h32v32h-32z"></path>
        </symbol>
        <symbol id="icon-google-sign_in" viewBox="0 0 32 32">
            <path d="M0 0h32v32h-32z"></path>
        </symbol>
        <symbol id="icon-instagram" viewBox="0 0 30 31">
            <path fill-rule="evenodd" clip-rule="evenodd"
                d="M0 13.3739C0 7.08886 -2.38419e-07 3.94553 1.95333 1.99386C3.905 0.0405271 7.04833 0.0405273 13.3333 0.0405273H16.6667C22.9517 0.0405273 26.095 0.0405271 28.0467 1.99386C30 3.94553 30 7.08886 30 13.3739V16.7072C30 22.9922 30 26.1355 28.0467 28.0872C26.095 30.0405 22.9517 30.0405 16.6667 30.0405H13.3333C7.04833 30.0405 3.905 30.0405 1.95333 28.0872C-2.38419e-07 26.1355 0 22.9922 0 16.7072V13.3739ZM25 7.54053C25 8.20357 24.7366 8.83945 24.2678 9.30829C23.7989 9.77713 23.163 10.0405 22.5 10.0405C21.837 10.0405 21.2011 9.77713 20.7322 9.30829C20.2634 8.83945 20 8.20357 20 7.54053C20 6.87749 20.2634 6.2416 20.7322 5.77276C21.2011 5.30392 21.837 5.04053 22.5 5.04053C23.163 5.04053 23.7989 5.30392 24.2678 5.77276C24.7366 6.2416 25 6.87749 25 7.54053ZM18.3333 16.7072C18.3333 17.5912 17.9821 18.4391 17.357 19.0642C16.7319 19.6893 15.8841 20.0405 15 20.0405C14.1159 20.0405 13.2681 19.6893 12.643 19.0642C12.0179 18.4391 11.6667 17.5912 11.6667 16.7072C11.6667 15.8231 12.0179 14.9753 12.643 14.3502C13.2681 13.7251 14.1159 13.3739 15 13.3739C15.8841 13.3739 16.7319 13.7251 17.357 14.3502C17.9821 14.9753 18.3333 15.8231 18.3333 16.7072ZM21.6667 16.7072C21.6667 18.4753 20.9643 20.171 19.714 21.4212C18.4638 22.6715 16.7681 23.3739 15 23.3739C13.2319 23.3739 11.5362 22.6715 10.286 21.4212C9.03571 20.171 8.33333 18.4753 8.33333 16.7072C8.33333 14.9391 9.03571 13.2434 10.286 11.9931C11.5362 10.7429 13.2319 10.0405 15 10.0405C16.7681 10.0405 18.4638 10.7429 19.714 11.9931C20.9643 13.2434 21.6667 14.9391 21.6667 16.7072Z" />
        </symbol>
        <symbol id="icon-mail" viewBox="0 0 34 28">
            <path
                d="M30.3335 0.707275H3.66683C1.8335 0.707275 0.350163 2.20728 0.350163 4.04061L0.333496 24.0406C0.333496 25.8739 1.8335 27.3739 3.66683 27.3739H30.3335C32.1668 27.3739 33.6668 25.8739 33.6668 24.0406V4.04061C33.6668 2.20728 32.1668 0.707275 30.3335 0.707275ZM29.6668 7.79061L17.8835 15.1573C17.3502 15.4906 16.6502 15.4906 16.1168 15.1573L4.3335 7.79061C4.16638 7.69679 4.02003 7.57004 3.90331 7.41803C3.78659 7.26602 3.70193 7.09191 3.65445 6.90623C3.60698 6.72055 3.59767 6.52717 3.62709 6.33779C3.65651 6.14841 3.72406 5.96696 3.82563 5.80444C3.92721 5.64192 4.0607 5.5017 4.21804 5.39227C4.37538 5.28283 4.55328 5.20646 4.74099 5.16777C4.9287 5.12909 5.1223 5.12889 5.31009 5.16719C5.49787 5.20549 5.67594 5.2815 5.8335 5.39061L17.0002 12.3739L28.1668 5.39061C28.3244 5.2815 28.5025 5.20549 28.6902 5.16719C28.878 5.12889 29.0716 5.12909 29.2593 5.16777C29.447 5.20646 29.6249 5.28283 29.7823 5.39227C29.9396 5.5017 30.0731 5.64192 30.1747 5.80444C30.2763 5.96696 30.3438 6.14841 30.3732 6.33779C30.4027 6.52717 30.3933 6.72055 30.3459 6.90623C30.2984 7.09191 30.2137 7.26602 30.097 7.41803C29.9803 7.57004 29.834 7.69679 29.6668 7.79061Z" />
        </symbol>
        <symbol id="icon-main-logo-strip" viewBox="0 0 48 48" xmlns="http://www.w3.org/2000/svg"
            fill="none">
            <path fill="#fff" d="M24 28.5a4.5 4.5 0 1 1 0-9 4.5 4.5 0 0 1 0 9" />
            <path fill="#fff" fill-rule="evenodd"
                d="M23.512 44c-11.046 0-20-8.954-20-20s8.954-20 20-20 20 8.954 20 20a19.99 19.99 0 0 1-9.46 17h9.96v3zm2-33a2 2 0 1 0-4 0 2 2 0 0 0 4 0m-13 13a2 2 0 1 1-4 0 2 2 0 0 1 4 0m26 0a2 2 0 1 1-4 0 2 2 0 0 1 4 0m-15 11a2 2 0 1 1 0 4 2 2 0 0 1 0-4m-7.5-11a7.5 7.5 0 1 0 15 0 7.5 7.5 0 0 0-15 0"
                clip-rule="evenodd" />
        </symbol>
        <symbol id="icon-logout" viewBox="0 0 32 32">
            <path fill="none" stroke="#fff" style="stroke: var(--color1, #fff)"
                stroke-linejoin="round"
                stroke-linecap="round" stroke-miterlimit="4" stroke-width="1.3333"
                d="M20.205 23.487v3.899c0 0 0 0.001 0 0.001 0 1.075-0.872 1.947-1.947 1.947-0.001 0-0.002 0-0.003 0h-13.64c-0.001 0-0.002 0-0.003 0-1.075 0-1.947-0.872-1.947-1.947 0-0.001 0-0.002 0-0.003v0-21.435c0-0.001 0-0.002 0-0.003 0-1.075 0.872-1.947 1.947-1.947 0.001 0 0.002 0 0.003 0h13.64c0.001 0 0.002 0 0.003 0 1.075 0 1.947 0.872 1.947 1.947 0 0.001 0 0.002 0 0.003v-0 3.897">
            </path>
            <path fill="none" stroke="#fff" style="stroke: var(--color1, #fff)"
                stroke-linejoin="round"
                stroke-linecap="round" stroke-miterlimit="4" stroke-width="2.6667"
                d="M13.385 16.667h13.64M27.025 16.667l-3.897-3.897M27.027 16.667l-3.897 3.897"></path>
        </symbol>
        <symbol id="icon-user" fill="currentColor" viewBox="0 0 18 20">
            <path fill-rule="evenodd"
                d="M12.268 1.575a5.5 5.5 0 0 0-6.536 0 5.5 5.5 0 0 0 .172 8.972 9.005 9.005 0 0 0-5.9 8.18 1 1 0 0 0 .008.137.75.75 0 0 0 .738.886h16.5a.75.75 0 0 0 .74-.877 1 1 0 0 0 .006-.145 9.005 9.005 0 0 0-5.9-8.181 5.5 5.5 0 0 0 .172-8.972m4.195 16.675a7.5 7.5 0 0 0-14.925 0zM6.172 8.828a4 4 0 1 1 5.656-5.656 4 4 0 0 1-5.656 5.656"
                clip-rule="evenodd"></path>
        </symbol>
        <symbol id="burger-icon" viewBox="0 0 30 22">
            <path d="M1.5 2.00146H28.5M1.5 11.0015H28.5M1.5 20.0015H28.5" stroke="currentColor"
                stroke-width="3"
                stroke-linecap="round" />
        </symbol>
        <symbol id="icon-heart" fill="currentColor" viewBox="0 0 18 16">
            <path
                d="M13.018 0C11.358 0 9.906.74 9 1.991 8.094.741 6.642 0 4.982 0a4.9 4.9 0 0 0-3.521 1.515A5.27 5.27 0 0 0 0 5.168c0 5.835 8.34 10.557 8.695 10.752a.62.62 0 0 0 .61 0C9.66 15.725 18 11.003 18 5.168a5.27 5.27 0 0 0-1.46-3.653A4.9 4.9 0 0 0 13.017 0M9 14.57c-1.467-.887-7.714-4.927-7.714-9.402a3.91 3.91 0 0 1 1.084-2.71 3.64 3.64 0 0 1 2.612-1.124c1.563 0 2.875.863 3.423 2.25.049.122.131.227.237.3a.63.63 0 0 0 .716 0 .66.66 0 0 0 .237-.3c.548-1.39 1.86-2.25 3.423-2.25.98.001 1.92.405 2.612 1.124a3.91 3.91 0 0 1 1.084 2.71c0 4.468-6.248 8.514-7.714 9.402" />
        </symbol>
        <svg id="icon-heart_fill" viewBox="0 0 15 13" fill="none">
            <path
                d="M10.5403 9.3166C9.29089 10.4108 8.01528 11.1889 7.49966 11.4857C6.98403 11.1889 5.70842 10.4108 4.45896 9.3166C2.84206 7.9006 1.54227 6.19254 1.54199 4.4864C1.543 3.73028 1.8438 3.00542 2.37847 2.47075C2.91313 1.93609 3.638 1.63528 4.39411 1.63428C5.38445 1.63443 6.20185 2.05537 6.69997 2.7188L7.49965 3.78386L8.29933 2.7188C8.79746 2.05537 9.61486 1.63444 10.6052 1.63428C11.3613 1.63528 12.0862 1.93609 12.6208 2.47075C13.1555 3.00537 13.4563 3.73016 13.4573 4.4862C13.4571 6.19241 12.1573 7.90054 10.5403 9.3166Z"
                fill="currentColor" stroke="currentColor" stroke-width="2" />
        </svg>
        <symbol id="icon-get-film-picks" viewBox="0 0 46 36">
            <path
                d="M16 15.3999L18.0257 20.8742L23.5 22.8999L18.0257 24.9256L16 30.3999L13.9743 24.9256L8.5 22.8999L13.9743 20.8742L16 15.3999Z"
                fill="white" />
            <path
                d="M32 13.3999L33.4855 17.4144L37.5 18.8999L33.4855 20.3854L32 24.3999L30.5145 20.3854L26.5 18.8999L30.5145 17.4144L32 13.3999Z"
                fill="white" />
            <path fill-rule="evenodd" clip-rule="evenodd"
                d="M0.5 4.8999C0.5 4.63477 0.525796 4.37566 0.575015 4.12495C0.935893 2.28669 2.556 0.899902 4.5 0.899902H41.5C43.444 0.899902 45.0641 2.28669 45.425 4.12495C45.4742 4.37566 45.5 4.63477 45.5 4.8999V31.8999C45.5 34.109 43.7091 35.8999 41.5 35.8999H4.5C2.29086 35.8999 0.5 34.109 0.5 31.8999V4.8999ZM2.5 9.8999H43.5V31.8999C43.5 33.0045 42.6046 33.8999 41.5 33.8999H4.5C3.39543 33.8999 2.5 33.0045 2.5 31.8999V9.8999ZM17.9561 2.66962L20.6514 8.06024H28.0437L25.1944 2.66962H17.9561ZM33.6943 8.06024L30.999 2.66962H38.2373L41.0866 8.06024H33.6943ZM4.91309 2.66962L7.6084 8.06024H15.0007L12.1514 2.66962H4.91309Z"
                fill="white" />

        </symbol>
        <symbol id="icon-take_quiz" viewBox="0 0 43 44">
            <path
                d="M25.5 29.7449C26.0167 29.7449 26.4708 29.5491 26.8625 29.1574C27.2558 28.7641 27.4525 28.3099 27.4525 27.7949C27.4525 27.2782 27.2558 26.8241 26.8625 26.4324C26.4692 26.0407 26.015 25.8441 25.5 25.8424C24.9833 25.8424 24.5292 26.0391 24.1375 26.4324C23.7458 26.8257 23.5492 27.2799 23.5475 27.7949C23.5475 28.3116 23.7442 28.7657 24.1375 29.1574C24.5292 29.5491 24.9833 29.7449 25.5 29.7449ZM24.395 22.7074H26.605C26.67 21.6591 26.835 20.8699 27.1 20.3399C27.3667 19.8099 28.0067 19.0699 29.02 18.1199C30.0767 17.1599 30.8133 16.3016 31.23 15.5449C31.6467 14.7916 31.855 13.9257 31.855 12.9474C31.855 11.2641 31.255 9.86157 30.055 8.7399C28.855 7.61657 27.3367 7.0549 25.5 7.0549C24.1117 7.0549 22.8783 7.4299 21.8 8.1799C20.7217 8.9299 19.9008 9.95157 19.3375 11.2449L21.365 12.1399C21.8367 11.1632 22.4117 10.4299 23.09 9.9399C23.7667 9.45157 24.57 9.2074 25.5 9.2074C26.6917 9.2074 27.6808 9.56074 28.4675 10.2674C29.2508 10.9741 29.6425 11.8866 29.6425 13.0049C29.6425 13.6849 29.4525 14.3174 29.0725 14.9024C28.6908 15.4857 28.035 16.1899 27.105 17.0149C26.0517 17.9349 25.3367 18.7791 24.96 19.5474C24.5833 20.3141 24.395 21.3674 24.395 22.7074ZM12.0375 35.8999C10.8875 35.8999 9.9275 35.5149 9.1575 34.7449C8.38583 33.9732 8 33.0124 8 31.8624V4.9374C8 3.7874 8.38583 2.8274 9.1575 2.0574C9.9275 1.28574 10.8875 0.899902 12.0375 0.899902H38.9625C40.1125 0.899902 41.0725 1.28574 41.8425 2.0574C42.6142 2.8274 43 3.7874 43 4.9374V31.8624C43 33.0124 42.615 33.9732 41.845 34.7449C41.0733 35.5149 40.1125 35.8999 38.9625 35.8999H12.0375ZM12.0375 33.3999H38.9625C39.3458 33.3999 39.6983 33.2399 40.02 32.9199C40.34 32.5982 40.5 32.2457 40.5 31.8624V4.9374C40.5 4.55407 40.34 4.20157 40.02 3.8799C39.6983 3.5599 39.3458 3.3999 38.9625 3.3999H12.0375C11.6542 3.3999 11.3017 3.5599 10.98 3.8799C10.66 4.20157 10.5 4.55407 10.5 4.9374V31.8624C10.5 32.2457 10.66 32.5982 10.98 32.9199C11.3017 33.2399 11.6542 33.3999 12.0375 33.3999ZM4.5375 43.3999C3.3875 43.3999 2.4275 43.0149 1.6575 42.2449C0.885833 41.4732 0.5 40.5124 0.5 39.3624V9.9374H3V39.3624C3 39.7457 3.16 40.0982 3.48 40.4199C3.80167 40.7399 4.15417 40.8999 4.5375 40.8999H33.9625V43.3999H4.5375Z"
                fill="#ffffff" />
        </symbol>
        <symbol id="icon-explore-and-enjoy" fill="none" viewBox="0 0 40 45">
            <path
                d="M32.9426 14.5314C34.0505 14.5314 35.113 14.0913 35.8963 13.308C36.6797 12.5246 37.1198 11.4621 37.1198 10.3543C37.1198 9.24643 36.6797 8.18396 35.8963 7.40059C35.113 6.61723 34.0505 6.17714 32.9426 6.17714C32.9426 5.06929 32.5025 4.00682 31.7192 3.22345C30.9358 2.44009 29.8733 2 28.7655 2C27.6577 2 26.5952 2.44009 25.8118 3.22345C25.0284 4.00682 24.5884 5.06929 24.5884 6.17714C24.5884 5.06929 24.1483 4.00682 23.3649 3.22345C22.5815 2.44009 21.5191 2 20.4112 2C19.3034 2 18.2409 2.44009 17.4575 3.22345C16.6742 4.00682 16.2341 5.06929 16.2341 6.17714C16.2341 5.06929 15.794 4.00682 15.0106 3.22345C14.2273 2.44009 13.1648 2 12.0569 2C10.9491 2 9.88663 2.44009 9.10327 3.22345C8.3199 4.00682 7.87981 5.06929 7.87981 6.17714C6.77196 6.17714 5.70949 6.61723 4.92613 7.40059C4.14276 8.18396 3.70267 9.24643 3.70267 10.3543C3.70267 11.4621 4.14276 12.5246 4.92613 13.308C5.70949 14.0913 6.77196 14.5314 7.87981 14.5314M16.2341 43.7714L14.1455 14.5314M24.5884 43.7714L26.6769 14.5314M37.1202 14.5314C38.1645 14.5314 38.9999 15.3668 38.791 16.62L33.3607 41.6828C33.1519 42.7271 31.8987 43.7714 30.8545 43.7714H9.96878C8.71564 43.7714 7.67135 42.9359 7.4625 41.6828L2.03222 16.62C1.82336 15.3668 2.65879 14.5314 3.70307 14.5314H37.1202Z"
                stroke="white" stroke-width="2.33" stroke-linecap="round"
                stroke-linejoin="round" />

        </symbol>
        <symbol id="icon-play" viewBox="0 0 16 16" fill="none" xmlns="http://www.w3.org/2000/svg">
            <path
                d="M14 7.13398C14.6667 7.51888 14.6667 8.48113 14 8.86603L5.75 13.6292C5.08333 14.0141 4.25 13.5329 4.25 12.7631L4.25 3.23686C4.25 2.46706 5.08333 1.98593 5.75 2.37083L14 7.13398Z"
                fill="currentColor" />
        </symbol>
        <symbol id="icon-star" viewBox="0 0 19 19" fill="none" xmlns="http://www.w3.org/2000/svg">
            <path
                d="M8.55466 1.25338C8.91305 0.481644 10.0102 0.481646 10.3686 1.25338L12.3437 5.50641C12.4894 5.82016 12.7869 6.03632 13.1304 6.07795L17.7856 6.64215C18.6303 6.74453 18.9693 7.78797 18.3461 8.3673L14.9116 11.56C14.6582 11.7956 14.5446 12.1453 14.6111 12.4848L15.5131 17.0865C15.6768 17.9215 14.7891 18.5664 14.0456 18.1527L9.9478 15.8729C9.6455 15.7047 9.27774 15.7047 8.97544 15.8729L4.87766 18.1527C4.1341 18.5664 3.24649 17.9215 3.41015 17.0865L4.31211 12.4848C4.37865 12.1453 4.26501 11.7956 4.01164 11.56L0.577109 8.3673C-0.0461013 7.78797 0.292935 6.74453 1.13765 6.64215L5.79287 6.07795C6.13629 6.03632 6.43381 5.82016 6.57952 5.50641L8.55466 1.25338Z"
                fill="currentColor" />
        </symbol>
        <symbol id="icon-checked" viewBox="0 0 16 16" fill="none" xmlns="http://www.w3.org/2000/svg">
            <path d="M2.5 7.25L7.5 12.25L13.5 3.75" stroke="currentColor" stroke-width="2"
                stroke-linecap="round" />
        </symbol>

        <symbol id="icon-heart" fill="currentColor" viewBox="0 0 18 16">
            <path
                d="M13.018 0C11.358 0 9.906.74 9 1.991 8.094.741 6.642 0 4.982 0a4.9 4.9 0 0 0-3.521 1.515A5.27 5.27 0 0 0 0 5.168c0 5.835 8.34 10.557 8.695 10.752a.62.62 0 0 0 .61 0C9.66 15.725 18 11.003 18 5.168a5.27 5.27 0 0 0-1.46-3.653A4.9 4.9 0 0 0 13.017 0M9 14.57c-1.467-.887-7.714-4.927-7.714-9.402a3.91 3.91 0 0 1 1.084-2.71 3.64 3.64 0 0 1 2.612-1.124c1.563 0 2.875.863 3.423 2.25.049.122.131.227.237.3a.63.63 0 0 0 .716 0 .66.66 0 0 0 .237-.3c.548-1.39 1.86-2.25 3.423-2.25.98.001 1.92.405 2.612 1.124a3.91 3.91 0 0 1 1.084 2.71c0 4.468-6.248 8.514-7.714 9.402" />
        </symbol>

        <symbol id="border-quiz" xmlns="http://www.w3.org/2000/svg" width="288" height="42"
            fill="none">
            <path fill="#20E8DA" fill-opacity=".2"
                d="M0 .39414V42.0003h288V.39401L0 .39413ZM18.6149 33.2999c-2.0242 0-3.6822-1.7836-3.6822-3.9705V10.357c0-2.18429 1.658-3.97048 3.6822-3.97048h10.955c2.0242 0 3.6796 1.78357 3.6796 3.97048v18.9724c0 2.1843-1.6528 3.9705-3.6796 3.9705h-10.955ZM73.22 29.3294c0 2.1843-1.658 3.9705-3.6822 3.9705h-10.955c-2.0242 0-3.6796-1.7836-3.6796-3.9705V10.357c0-2.18429 1.6528-3.97048 3.6796-3.97048h10.955c2.0242 0 3.6822 1.78357 3.6822 3.97048v18.9724Zm39.968 0c0 2.1843-1.653 3.9705-3.68 3.9705H98.5533c-2.0241 0-3.6822-1.7836-3.6822-3.9705V10.357c0-2.18429 1.6581-3.97048 3.6822-3.97048h10.9547c2.024 0 3.68 1.78357 3.68 3.97048v18.9724Zm39.973 0c0 2.1843-1.658 3.9705-3.682 3.9705h-10.955c-2.022 0-3.68-1.7836-3.68-3.9705V10.357c0-2.18429 1.658-3.97048 3.68-3.97048h10.955c2.024 0 3.682 1.78357 3.682 3.97048v18.9724Zm25.333 3.9705c-2.024 0-3.679-1.7836-3.679-3.9705V10.357c0-2.18429 1.653-3.97048 3.679-3.97048h10.955c2.024 0 3.68 1.78357 3.68 3.97048v18.9724c0 2.1843-1.653 3.9705-3.68 3.9705h-10.955Zm50.926 0h-10.96c-2.022 0-3.68-1.7836-3.68-3.9705V10.357c0-2.18429 1.658-3.97048 3.68-3.97048h10.96c2.021 0 3.679 1.78357 3.679 3.97048v18.9724c0 2.1869-1.658 3.9705-3.679 3.9705Zm43.65-3.9705c0 2.1843-1.658 3.9705-3.682 3.9705h-10.955c-2.024 0-3.68-1.7836-3.68-3.9705V10.357c0-2.18429 1.653-3.97048 3.68-3.97048h10.955c2.024 0 3.682 1.78357 3.682 3.97048v18.9724Z"
                opacity=".82" />
            <g fill="#20E8DA" fill-opacity=".2" opacity=".82">
                <path
                    d="M14.9327 13.7929H0v9.1667h14.9327v-9.1667ZM54.905 13.7926H33.2486v9.1667H54.905v-9.1667ZM94.8715 13.7929H73.2204v9.1667h21.6511v-9.1667ZM134.844 13.7929h-21.656v9.1667h21.656v-9.1667ZM174.817 13.7926h-21.656v9.1667h21.656v-9.1667ZM214.783 13.7929h-21.657v9.1667h21.657v-9.1667ZM254.756 13.7926H233.1v9.1667h21.656v-9.1667ZM287.997 13.7926h-14.928v9.1667h14.928v-9.1667ZM36.2181 34.004h-7.8952v7.9907h7.8952V34.004ZM14.9327 34.0041H9.58987v7.9907h5.34283v-7.9907ZM.00296 41.9974h5.34281V26.4848H.00296v15.5126ZM43.9503 34.004h-4.9008v7.9907h4.9008V34.004ZM51.6835 34.0041h-4.9008v7.9907h4.9008v-7.9907ZM238.001 34.004H233.1v7.9907h4.901V34.004ZM252.514 34.004h-12.147v7.9907h12.147V34.004ZM142.297 34.004h-4.9v7.9907h4.9V34.004ZM150.864 34.0041h-4.9v7.9907h4.9v-7.9907ZM283.099 34.0041h-3.463v-7.5193h-4.9v7.5193h-4.117v7.9933h4.901v-7.5219h3.136v7.5219h4.901v-7.5219H288v-7.9907h-4.901v7.5193ZM172.283 26.4848h-13.468v7.5193h-4.284v7.9933h4.901v-7.5219h3.666v7.5219h4.901v-7.5219h3.667v7.5219h4.901v-7.9933h-4.284v-7.5193ZM185.134 34.0041h-4.901v7.9907h4.901v-7.9907ZM193.702 34.0041h-4.901v7.9907h4.901v-7.9907ZM91.1108 34.004H86.21v7.9907h4.9008V34.004ZM98.8411 34.004h-4.9009v7.9907h4.9009V34.004ZM106.482 34.0041h-4.901v7.9907h4.901v-7.9907Z" />
            </g>
        </symbol>
        <symbol id="icon-search" fill="none" height="24" stroke="currentColor"
            stroke-linecap="round" stroke-linejoin="round" opacity="0.5" stroke-width="2"
            viewBox="0 0 24 24">
            <circle cx="11" cy="11" r="8" />
            <line x1="21" x2="16.65" y1="21" y2="16.65" />
        </symbol>
        <symbol id="main-logo" viewBox="0 0 48 48" fill="none">
            <path fill="#fff" d="M24 28.5a4.5 4.5 0 1 1 0-9 4.5 4.5 0 0 1 0 9" />
            <path fill="#fff" fill-rule="evenodd"
                d="M23.512 44c-11.046 0-20-8.954-20-20s8.954-20 20-20 20 8.954 20 20a19.99 19.99 0 0 1-9.46 17h9.96v3zm2-33a2 2 0 1 0-4 0 2 2 0 0 0 4 0m-13 13a2 2 0 1 1-4 0 2 2 0 0 1 4 0m26 0a2 2 0 1 1-4 0 2 2 0 0 1 4 0m-15 11a2 2 0 1 1 0 4 2 2 0 0 1 0-4m-7.5-11a7.5 7.5 0 1 0 15 0 7.5 7.5 0 0 0-15 0"
                clip-rule="evenodd" />
        </symbol>
        <symbol id="icon-frame-shot" viewBox="0 0 288 275" fill="none">
            <path fill="#20E8DA" fill-opacity=".2"
                d="M0 .003V275h288V.003H0Zm214.783 15.486c0-2.184 1.658-3.97 3.679-3.97h10.961c2.021 0 3.679 1.783 3.679 3.97v18.973c0 2.184-1.658 3.97-3.679 3.97h-10.961c-2.021 0-3.679-1.784-3.679-3.97V15.489Zm66.326 39.938v166.964c0 6.076-4.566 11.003-10.197 11.003H17.09c-5.63 0-10.196-4.927-10.196-11.003V55.427c0-6.076 4.566-11.003 10.196-11.003h253.822c5.631 0 10.197 4.927 10.197 11.003ZM178.494 11.519h10.955c2.025 0 3.68 1.783 3.68 3.97v18.973c0 2.184-1.653 3.97-3.68 3.97h-10.955c-2.024 0-3.679-1.784-3.679-3.97V15.489c0-2.187 1.655-3.97 3.679-3.97Zm-43.65 3.97c0-2.184 1.658-3.97 3.68-3.97h10.955c2.024 0 3.682 1.783 3.682 3.97v18.973c0 2.184-1.658 3.97-3.682 3.97h-10.955c-2.022 0-3.68-1.784-3.68-3.97V15.489Zm-25.336-3.97c2.024 0 3.68 1.783 3.68 3.97v18.973c0 2.184-1.653 3.97-3.68 3.97H98.553c-2.024 0-3.682-1.784-3.682-3.97V15.489c0-2.184 1.658-3.97 3.682-3.97h10.955Zm-54.602 3.97c0-2.184 1.653-3.97 3.68-3.97H69.54c2.025 0 3.683 1.783 3.683 3.97v18.973c0 2.184-1.658 3.97-3.683 3.97H58.585c-2.024 0-3.68-1.784-3.68-3.97V15.489Zm-39.973 0c0-2.184 1.658-3.97 3.682-3.97H29.57c2.024 0 3.68 1.783 3.68 3.97v18.973c0 2.184-1.653 3.97-3.68 3.97H18.615c-2.024 0-3.682-1.784-3.682-3.97V15.489ZM18.615 266.3c-2.024 0-3.682-1.784-3.682-3.971v-18.972c0-2.185 1.658-3.971 3.682-3.971H29.57c2.024 0 3.68 1.784 3.68 3.971v18.972c0 2.184-1.653 3.971-3.68 3.971H18.615Zm54.605-3.971c0 2.184-1.658 3.971-3.682 3.971H58.583c-2.024 0-3.68-1.784-3.68-3.971v-18.972c0-2.185 1.653-3.971 3.68-3.971h10.955c2.024 0 3.682 1.784 3.682 3.971v18.972Zm39.968 0c0 2.184-1.653 3.971-3.68 3.971H98.553c-2.024 0-3.682-1.784-3.682-3.971v-18.972c0-2.185 1.658-3.971 3.682-3.971h10.955c2.024 0 3.68 1.784 3.68 3.971v18.972Zm39.973 0c0 2.184-1.658 3.971-3.682 3.971h-10.955c-2.022 0-3.68-1.784-3.68-3.971v-18.972c0-2.185 1.658-3.971 3.68-3.971h10.955c2.024 0 3.682 1.784 3.682 3.971v18.972Zm25.333 3.971c-2.024 0-3.679-1.784-3.679-3.971v-18.972c0-2.185 1.653-3.971 3.679-3.971h10.955c2.025 0 3.68 1.784 3.68 3.971v18.972c0 2.184-1.653 3.971-3.68 3.971h-10.955Zm50.926 0h-10.96c-2.022 0-3.68-1.784-3.68-3.971v-18.972c0-2.185 1.658-3.971 3.68-3.971h10.96c2.021 0 3.679 1.784 3.679 3.971v18.972c0 2.187-1.658 3.971-3.679 3.971Zm43.65-3.971c0 2.184-1.658 3.971-3.682 3.971h-10.955c-2.024 0-3.68-1.784-3.68-3.971v-18.972c0-2.185 1.653-3.971 3.68-3.971h10.955c2.024 0 3.682 1.784 3.682 3.971v18.972Zm0-227.868c0 2.185-1.658 3.971-3.682 3.971h-10.955c-2.024 0-3.68-1.784-3.68-3.97V15.489c0-2.184 1.653-3.97 3.68-3.97h10.955c2.024 0 3.682 1.783 3.682 3.97v18.973Z"
                opacity=".82" />
            <g fill="#20E8DA" fill-opacity=".2" opacity=".82">
                <path
                    d="M14.933 19.04H0v9.167h14.933v-9.166ZM54.905 19.04H33.249v9.167h21.656V19.04ZM94.871 19.04h-21.65v9.167h21.65v-9.166ZM134.844 19.04h-21.656v9.167h21.656v-9.166ZM174.817 19.04h-21.656v9.167h21.656V19.04ZM214.783 19.04h-21.657v9.167h21.657v-9.166ZM254.756 19.04H233.1v9.167h21.656V19.04ZM287.997 19.04h-14.928v9.167h14.928V19.04ZM36.218 0h-7.895v7.99h7.895V0ZM14.933 0H9.59v7.99h5.343V0ZM5.346 0H.003v15.513h5.343V0ZM43.95 0h-4.9v7.99h4.9V0ZM51.684 0h-4.901v7.99h4.9V0ZM238.001 0H233.1v7.99h4.901V0ZM252.514 0h-12.147v7.99h12.147V0ZM142.297 0h-4.9v7.99h4.9V0ZM150.864 0h-4.9v7.99h4.9V0ZM283.557 7.522V0h-4.901v7.522h-3.136V0h-4.901v7.993h4.116v7.52h4.901v-7.52h3.463v7.52H288V7.522h-4.443ZM158.815 15.513h13.468v-7.52h4.284V0h-4.901v7.522h-3.667V0h-4.901v7.522h-3.666V0h-4.901v7.993h4.284v7.52ZM185.134 0h-4.901v7.99h4.901V0ZM193.702 0h-4.901v7.99h4.901V0ZM91.11 0h-4.9v7.99h4.9V0ZM98.841 0h-4.9v7.99h4.9V0ZM106.482 0h-4.901v7.99h4.901V0ZM14.933 246.793H0v9.167h14.933v-9.167ZM54.905 246.793H33.249v9.166h21.656v-9.166ZM94.871 246.793h-21.65v9.167h21.65v-9.167ZM134.844 246.793h-21.656v9.167h21.656v-9.167ZM174.817 246.793h-21.656v9.166h21.656v-9.166ZM214.783 246.793h-21.657v9.167h21.657v-9.167ZM254.756 246.793H233.1v9.166h21.656v-9.166ZM287.997 246.793h-14.928v9.166h14.928v-9.166ZM36.218 267.004h-7.895v7.991h7.895v-7.991ZM14.933 267.004H9.59v7.991h5.343v-7.991ZM.003 274.997h5.343v-15.512H.003v15.512ZM43.95 267.004h-4.9v7.991h4.9v-7.991ZM51.684 267.004h-4.901v7.991h4.9v-7.991ZM238.001 267.004H233.1v7.991h4.901v-7.991ZM252.514 267.004h-12.147v7.991h12.147v-7.991ZM142.297 267.004h-4.9v7.991h4.9v-7.991ZM150.864 267.004h-4.9v7.991h4.9v-7.991ZM283.099 267.004h-3.463v-7.519h-4.901v7.519h-4.116v7.993h4.901v-7.522h3.136v7.522h4.901v-7.522H288v-7.99h-4.901v7.519ZM172.283 259.485h-13.468v7.519h-4.284v7.993h4.901v-7.522h3.666v7.522h4.901v-7.522h3.667v7.522h4.901v-7.993h-4.284v-7.519ZM185.134 267.004h-4.901v7.991h4.901v-7.991ZM193.702 267.004h-4.901v7.991h4.901v-7.991ZM91.11 267.004h-4.9v7.991h4.9v-7.991ZM98.841 267.004h-4.9v7.991h4.9v-7.991ZM106.482 267.004h-4.901v7.991h4.901v-7.991Z" />
            </g>
        </symbol>
        <symbol id="icon-edit-profile" viewBox="0 0 32 32">
            <path fill="none" stroke="currentColor" 
                stroke-linejoin="miter"
                stroke-linecap="butt" stroke-miterlimit="4" stroke-width="1.5"
                d="M16 0.667c8.468 0 15.333 6.865 15.333 15.333s-6.865 15.333-15.333 15.333c-8.468 0-15.333-6.865-15.333-15.333s6.865-15.333 15.333-15.333z">
            </path>
            <path fill="currentColor" 
                d="M20.351 14.771l1.401-1.401c0.427-0.427 0.639-0.64 0.752-0.868 0.102-0.202 0.163-0.441 0.163-0.693s-0.060-0.491-0.167-0.702l0.004 0.009c-0.113-0.229-0.327-0.441-0.752-0.867-0.425-0.427-0.639-0.639-0.867-0.752-0.202-0.102-0.441-0.163-0.693-0.163s-0.491 0.060-0.702 0.167l0.009-0.004c-0.229 0.113-0.443 0.327-0.867 0.752l-1.42 1.419c0.769 1.298 1.83 2.349 3.098 3.082l0.041 0.022zM16.077 12.8l-5.36 5.36c-0.333 0.333-0.497 0.499-0.607 0.703-0.109 0.203-0.156 0.433-0.247 0.893l-0.48 2.4c-0.053 0.26-0.080 0.389-0.005 0.464s0.204 0.047 0.463-0.004l2.401-0.48c0.46-0.093 0.691-0.139 0.893-0.248s0.369-0.275 0.701-0.605l5.376-5.376c-1.271-0.805-2.321-1.845-3.112-3.067l-0.024-0.039z">
            </path>
        </symbol>
       
        <symbol id="icon-signout" viewBox="0 0 24 24">
            <path
                d="M21.593 10.943c.584.585.584 1.53 0 2.116L18.71 15.95c-.39.39-1.03.39-1.42 0a.996.996 0 0 1 0-1.41 9.552 9.552 0 0 1 1.689-1.345l.387-.242-.207-.206a10 10 0 0 1-2.24.254H8.998a1 1 0 1 1 0-2h7.921a10 10 0 0 1 2.24.254l.207-.206-.386-.241a9.562 9.562 0 0 1-1.69-1.348.996.996 0 0 1 0-1.41c.39-.39 1.03-.39 1.42 0l2.883 2.893zM14 16a1 1 0 0 0-1 1v1.5a.5.5 0 0 1-.5.5h-7a.5.5 0 0 1-.5-.5v-13a.5.5 0 0 1 .5-.5h7a.5.5 0 0 1 .5.5v1.505a1 1 0 1 0 2 0V5.5A2.5 2.5 0 0 0 12.5 3h-7A2.5 2.5 0 0 0 3 5.5v13A2.5 2.5 0 0 0 5.5 21h7a2.5 2.5 0 0 0 2.5-2.5V17a1 1 0 0 0-1-1z"
                clip-rule="evenodd" />
        </symbol>
        <symbol id="icon-remove-acount" viewBox="0 -5 32 32">
            <g id="SVGRepo_iconCarrier">
                <g id="Page-1" fill-rule="evenodd" stroke-width="1.1">
                    <g id="Icon-Set" transform="translate(-516 -1144)">
                        <path id="delete"
                            d="M538.708 1151.28a1.016 1.016 0 0 0-1.427 0l-2.3 2.3-2.239-2.24a1.002 1.002 0 1 0-1.415 1.42l2.239 2.23-2.268 2.27a1.013 1.013 0 0 0 0 1.43c.394.39 1.033.39 1.427 0l2.268-2.27 2.239 2.24a1.002 1.002 0 1 0 1.415-1.42l-2.239-2.23 2.3-2.3c.395-.4.395-1.03 0-1.43Zm7.29 10.72c0 1.1-.896 2-2.002 2h-17.529l-8.151-9.02 8.122-8.98h17.558c1.106 0 2.002.9 2.002 2v14Zm-2.002-18h-17.945c-.28-.02-.566.07-.78.28l-8.986 9.94a.989.989 0 0 0-.287.76c-.015.28.076.56.287.77l8.986 9.94c.196.19.452.29.708.29v.02h18.017a4.002 4.002 0 0 0 4.004-4v-14c0-2.21-1.793-4-4.004-4Z" />
                    </g>
                </g>
            </g>
        </symbol>
        <symbol id="icon-google" viewBox="0 0 24 24">
            <path stroke="currentColor" fill="none" stroke-linecap="round" stroke-linejoin="round"
                d="M23.5 12c0 .7-.1 1.3-.2 2-1.1 6.2-7.1 10.4-13.3 9.3S-.4 16.2.7 10 7.8-.4 14 .7c1.9.3 3.8 1.2 5.3 2.4L16.5 6c-1.3-1-2.9-1.5-4.5-1.5-4.1 0-7.5 3.3-7.5 7.5s3.3 7.5 7.5 7.5c3.4 0 6.3-2.2 7.2-5.5h-6.7v-4h10.8c.1.7.2 1.3.2 2zM1.8 6.7 5 9.3M1.8 17.2 5 14.7M16.3 18.2l3.2 2.5">
            </path>
        </symbol>

        <!-- <symbols id="icon-border-quiz" viewBox="0 0 288 42" fill="none">
            <path fill="#20E8DA" fill-opacity=".2"
                d="M0 .39414V42.0003h288V.39401L0 .39413ZM18.6149 33.2999c-2.0242 0-3.6822-1.7836-3.6822-3.9705V10.357c0-2.18429 1.658-3.97048 3.6822-3.97048h10.955c2.0242 0 3.6796 1.78357 3.6796 3.97048v18.9724c0 2.1843-1.6528 3.9705-3.6796 3.9705h-10.955ZM73.22 29.3294c0 2.1843-1.658 3.9705-3.6822 3.9705h-10.955c-2.0242 0-3.6796-1.7836-3.6796-3.9705V10.357c0-2.18429 1.6528-3.97048 3.6796-3.97048h10.955c2.0242 0 3.6822 1.78357 3.6822 3.97048v18.9724Zm39.968 0c0 2.1843-1.653 3.9705-3.68 3.9705H98.5533c-2.0241 0-3.6822-1.7836-3.6822-3.9705V10.357c0-2.18429 1.6581-3.97048 3.6822-3.97048h10.9547c2.024 0 3.68 1.78357 3.68 3.97048v18.9724Zm39.973 0c0 2.1843-1.658 3.9705-3.682 3.9705h-10.955c-2.022 0-3.68-1.7836-3.68-3.9705V10.357c0-2.18429 1.658-3.97048 3.68-3.97048h10.955c2.024 0 3.682 1.78357 3.682 3.97048v18.9724Zm25.333 3.9705c-2.024 0-3.679-1.7836-3.679-3.9705V10.357c0-2.18429 1.653-3.97048 3.679-3.97048h10.955c2.024 0 3.68 1.78357 3.68 3.97048v18.9724c0 2.1843-1.653 3.9705-3.68 3.9705h-10.955Zm50.926 0h-10.96c-2.022 0-3.68-1.7836-3.68-3.9705V10.357c0-2.18429 1.658-3.97048 3.68-3.97048h10.96c2.021 0 3.679 1.78357 3.679 3.97048v18.9724c0 2.1869-1.658 3.9705-3.679 3.9705Zm43.65-3.9705c0 2.1843-1.658 3.9705-3.682 3.9705h-10.955c-2.024 0-3.68-1.7836-3.68-3.9705V10.357c0-2.18429 1.653-3.97048 3.68-3.97048h10.955c2.024 0 3.682 1.78357 3.682 3.97048v18.9724Z"
                opacity=".82" />
            <g fill="#20E8DA" fill-opacity=".2" opacity=".82">
                <path
                    d="M14.9327 13.7929H0v9.1667h14.9327v-9.1667ZM54.905 13.7926H33.2486v9.1667H54.905v-9.1667ZM94.8715 13.7929H73.2204v9.1667h21.6511v-9.1667ZM134.844 13.7929h-21.656v9.1667h21.656v-9.1667ZM174.817 13.7926h-21.656v9.1667h21.656v-9.1667ZM214.783 13.7929h-21.657v9.1667h21.657v-9.1667ZM254.756 13.7926H233.1v9.1667h21.656v-9.1667ZM287.997 13.7926h-14.928v9.1667h14.928v-9.1667ZM36.2181 34.004h-7.8952v7.9907h7.8952V34.004ZM14.9327 34.0041H9.58987v7.9907h5.34283v-7.9907ZM.00296 41.9974h5.34281V26.4848H.00296v15.5126ZM43.9503 34.004h-4.9008v7.9907h4.9008V34.004ZM51.6835 34.0041h-4.9008v7.9907h4.9008v-7.9907ZM238.001 34.004H233.1v7.9907h4.901V34.004ZM252.514 34.004h-12.147v7.9907h12.147V34.004ZM142.297 34.004h-4.9v7.9907h4.9V34.004ZM150.864 34.0041h-4.9v7.9907h4.9v-7.9907ZM283.099 34.0041h-3.463v-7.5193h-4.9v7.5193h-4.117v7.9933h4.901v-7.5219h3.136v7.5219h4.901v-7.5219H288v-7.9907h-4.901v7.5193ZM172.283 26.4848h-13.468v7.5193h-4.284v7.9933h4.901v-7.5219h3.666v7.5219h4.901v-7.5219h3.667v7.5219h4.901v-7.9933h-4.284v-7.5193ZM185.134 34.0041h-4.901v7.9907h4.901v-7.9907ZM193.702 34.0041h-4.901v7.9907h4.901v-7.9907ZM91.1108 34.004H86.21v7.9907h4.9008V34.004ZM98.8411 34.004h-4.9009v7.9907h4.9009V34.004ZM106.482 34.0041h-4.901v7.9907h4.901v-7.9907Z" />
            </g>
        </symbols> -->
    </defs>
</svg>