<svg id="take-quiz" fill="none" xmlns="http://www.w3.org/2000/svg" viewBox="0 0 61 61">
    <g clip-path="url(#clip0_215_131)">
        <path
            d="M25.5 36.7449C26.0167 36.7449 26.4708 36.5491 26.8625 36.1574C27.2558 35.7641 27.4525 35.3099 27.4525 34.7949C27.4525 34.2782 27.2558 33.8241 26.8625 33.4324C26.4692 33.0407 26.015 32.8441 25.5 32.8424C24.9833 32.8424 24.5292 33.0391 24.1375 33.4324C23.7458 33.8257 23.5492 34.2799 23.5475 34.7949C23.5475 35.3116 23.7442 35.7657 24.1375 36.1574C24.5292 36.5491 24.9833 36.7449 25.5 36.7449ZM24.395 29.7074H26.605C26.67 28.6591 26.835 27.8699 27.1 27.3399C27.3667 26.8099 28.0067 26.0699 29.02 25.1199C30.0767 24.1599 30.8133 23.3016 31.23 22.5449C31.6467 21.7916 31.855 20.9257 31.855 19.9474C31.855 18.2641 31.255 16.8616 30.055 15.7399C28.855 14.6166 27.3367 14.0549 25.5 14.0549C24.1117 14.0549 22.8783 14.4299 21.8 15.1799C20.7217 15.9299 19.9008 16.9516 19.3375 18.2449L21.365 19.1399C21.8367 18.1632 22.4117 17.4299 23.09 16.9399C23.7667 16.4516 24.57 16.2074 25.5 16.2074C26.6917 16.2074 27.6808 16.5607 28.4675 17.2674C29.2508 17.9741 29.6425 18.8866 29.6425 20.0049C29.6425 20.6849 29.4525 21.3174 29.0725 21.9024C28.6908 22.4857 28.035 23.1899 27.105 24.0149C26.0517 24.9349 25.3367 25.7791 24.96 26.5474C24.5833 27.3141 24.395 28.3674 24.395 29.7074ZM12.0375 42.8999C10.8875 42.8999 9.9275 42.5149 9.1575 41.7449C8.38583 40.9732 8 40.0124 8 38.8624V11.9374C8 10.7874 8.38583 9.8274 9.1575 9.0574C9.9275 8.28574 10.8875 7.8999 12.0375 7.8999H38.9625C40.1125 7.8999 41.0725 8.28574 41.8425 9.0574C42.6142 9.8274 43 10.7874 43 11.9374V38.8624C43 40.0124 42.615 40.9732 41.845 41.7449C41.0733 42.5149 40.1125 42.8999 38.9625 42.8999H12.0375ZM12.0375 40.3999H38.9625C39.3458 40.3999 39.6983 40.2399 40.02 39.9199C40.34 39.5982 40.5 39.2457 40.5 38.8624V11.9374C40.5 11.5541 40.34 11.2016 40.02 10.8799C39.6983 10.5599 39.3458 10.3999 38.9625 10.3999H12.0375C11.6542 10.3999 11.3017 10.5599 10.98 10.8799C10.66 11.2016 10.5 11.5541 10.5 11.9374V38.8624C10.5 39.2457 10.66 39.5982 10.98 39.9199C11.3017 40.2399 11.6542 40.3999 12.0375 40.3999ZM4.5375 50.3999C3.3875 50.3999 2.4275 50.0149 1.6575 49.2449C0.885833 48.4732 0.5 47.5124 0.5 46.3624V16.9374H3V46.3624C3 46.7457 3.16 47.0982 3.48 47.4199C3.80167 47.7399 4.15417 47.8999 4.5375 47.8999H33.9625V50.3999H4.5375Z"
            fill="white"></path>
    </g>
    <defs>
        <clipPath id="clip0_215_131">
            <rect width="60" height="60" fill="white" transform="translate(0.5 0.399902)"></rect>
        </clipPath>
    </defs>
</svg>