<svg xmlns="http://www.w3.org/2000/svg" width="288" height="275" fill="none"><path fill="#20E8DA" fill-opacity=".2" d="M0 .003V275h288V.003H0Zm214.783 15.486c0-2.184 1.658-3.97 3.679-3.97h10.961c2.021 0 3.679 1.783 3.679 3.97v18.973c0 2.184-1.658 3.97-3.679 3.97h-10.961c-2.021 0-3.679-1.784-3.679-3.97V15.489Zm66.326 39.938v166.964c0 6.076-4.566 11.003-10.197 11.003H17.09c-5.63 0-10.196-4.927-10.196-11.003V55.427c0-6.076 4.566-11.003 10.196-11.003h253.822c5.631 0 10.197 4.927 10.197 11.003ZM178.494 11.519h10.955c2.025 0 3.68 1.783 3.68 3.97v18.973c0 2.184-1.653 3.97-3.68 3.97h-10.955c-2.024 0-3.679-1.784-3.679-3.97V15.489c0-2.187 1.655-3.97 3.679-3.97Zm-43.65 3.97c0-2.184 1.658-3.97 3.68-3.97h10.955c2.024 0 3.682 1.783 3.682 3.97v18.973c0 2.184-1.658 3.97-3.682 3.97h-10.955c-2.022 0-3.68-1.784-3.68-3.97V15.489Zm-25.336-3.97c2.024 0 3.68 1.783 3.68 3.97v18.973c0 2.184-1.653 3.97-3.68 3.97H98.553c-2.024 0-3.682-1.784-3.682-3.97V15.489c0-2.184 1.658-3.97 3.682-3.97h10.955Zm-54.602 3.97c0-2.184 1.653-3.97 3.68-3.97H69.54c2.025 0 3.683 1.783 3.683 3.97v18.973c0 2.184-1.658 3.97-3.683 3.97H58.585c-2.024 0-3.68-1.784-3.68-3.97V15.489Zm-39.973 0c0-2.184 1.658-3.97 3.682-3.97H29.57c2.024 0 3.68 1.783 3.68 3.97v18.973c0 2.184-1.653 3.97-3.68 3.97H18.615c-2.024 0-3.682-1.784-3.682-3.97V15.489ZM18.615 266.3c-2.024 0-3.682-1.784-3.682-3.971v-18.972c0-2.185 1.658-3.971 3.682-3.971H29.57c2.024 0 3.68 1.784 3.68 3.971v18.972c0 2.184-1.653 3.971-3.68 3.971H18.615Zm54.605-3.971c0 2.184-1.658 3.971-3.682 3.971H58.583c-2.024 0-3.68-1.784-3.68-3.971v-18.972c0-2.185 1.653-3.971 3.68-3.971h10.955c2.024 0 3.682 1.784 3.682 3.971v18.972Zm39.968 0c0 2.184-1.653 3.971-3.68 3.971H98.553c-2.024 0-3.682-1.784-3.682-3.971v-18.972c0-2.185 1.658-3.971 3.682-3.971h10.955c2.024 0 3.68 1.784 3.68 3.971v18.972Zm39.973 0c0 2.184-1.658 3.971-3.682 3.971h-10.955c-2.022 0-3.68-1.784-3.68-3.971v-18.972c0-2.185 1.658-3.971 3.68-3.971h10.955c2.024 0 3.682 1.784 3.682 3.971v18.972Zm25.333 3.971c-2.024 0-3.679-1.784-3.679-3.971v-18.972c0-2.185 1.653-3.971 3.679-3.971h10.955c2.025 0 3.68 1.784 3.68 3.971v18.972c0 2.184-1.653 3.971-3.68 3.971h-10.955Zm50.926 0h-10.96c-2.022 0-3.68-1.784-3.68-3.971v-18.972c0-2.185 1.658-3.971 3.68-3.971h10.96c2.021 0 3.679 1.784 3.679 3.971v18.972c0 2.187-1.658 3.971-3.679 3.971Zm43.65-3.971c0 2.184-1.658 3.971-3.682 3.971h-10.955c-2.024 0-3.68-1.784-3.68-3.971v-18.972c0-2.185 1.653-3.971 3.68-3.971h10.955c2.024 0 3.682 1.784 3.682 3.971v18.972Zm0-227.868c0 2.185-1.658 3.971-3.682 3.971h-10.955c-2.024 0-3.68-1.784-3.68-3.97V15.489c0-2.184 1.653-3.97 3.68-3.97h10.955c2.024 0 3.682 1.783 3.682 3.97v18.973Z" opacity=".82"/><g fill="#20E8DA" fill-opacity=".2" opacity=".82"><path d="M14.933 19.04H0v9.167h14.933v-9.166ZM54.905 19.04H33.249v9.167h21.656V19.04ZM94.871 19.04h-21.65v9.167h21.65v-9.166ZM134.844 19.04h-21.656v9.167h21.656v-9.166ZM174.817 19.04h-21.656v9.167h21.656V19.04ZM214.783 19.04h-21.657v9.167h21.657v-9.166ZM254.756 19.04H233.1v9.167h21.656V19.04ZM287.997 19.04h-14.928v9.167h14.928V19.04ZM36.218 0h-7.895v7.99h7.895V0ZM14.933 0H9.59v7.99h5.343V0ZM5.346 0H.003v15.513h5.343V0ZM43.95 0h-4.9v7.99h4.9V0ZM51.684 0h-4.901v7.99h4.9V0ZM238.001 0H233.1v7.99h4.901V0ZM252.514 0h-12.147v7.99h12.147V0ZM142.297 0h-4.9v7.99h4.9V0ZM150.864 0h-4.9v7.99h4.9V0ZM283.557 7.522V0h-4.901v7.522h-3.136V0h-4.901v7.993h4.116v7.52h4.901v-7.52h3.463v7.52H288V7.522h-4.443ZM158.815 15.513h13.468v-7.52h4.284V0h-4.901v7.522h-3.667V0h-4.901v7.522h-3.666V0h-4.901v7.993h4.284v7.52ZM185.134 0h-4.901v7.99h4.901V0ZM193.702 0h-4.901v7.99h4.901V0ZM91.11 0h-4.9v7.99h4.9V0ZM98.841 0h-4.9v7.99h4.9V0ZM106.482 0h-4.901v7.99h4.901V0ZM14.933 246.793H0v9.167h14.933v-9.167ZM54.905 246.793H33.249v9.166h21.656v-9.166ZM94.871 246.793h-21.65v9.167h21.65v-9.167ZM134.844 246.793h-21.656v9.167h21.656v-9.167ZM174.817 246.793h-21.656v9.166h21.656v-9.166ZM214.783 246.793h-21.657v9.167h21.657v-9.167ZM254.756 246.793H233.1v9.166h21.656v-9.166ZM287.997 246.793h-14.928v9.166h14.928v-9.166ZM36.218 267.004h-7.895v7.991h7.895v-7.991ZM14.933 267.004H9.59v7.991h5.343v-7.991ZM.003 274.997h5.343v-15.512H.003v15.512ZM43.95 267.004h-4.9v7.991h4.9v-7.991ZM51.684 267.004h-4.901v7.991h4.9v-7.991ZM238.001 267.004H233.1v7.991h4.901v-7.991ZM252.514 267.004h-12.147v7.991h12.147v-7.991ZM142.297 267.004h-4.9v7.991h4.9v-7.991ZM150.864 267.004h-4.9v7.991h4.9v-7.991ZM283.099 267.004h-3.463v-7.519h-4.901v7.519h-4.116v7.993h4.901v-7.522h3.136v7.522h4.901v-7.522H288v-7.99h-4.901v7.519ZM172.283 259.485h-13.468v7.519h-4.284v7.993h4.901v-7.522h3.666v7.522h4.901v-7.522h3.667v7.522h4.901v-7.993h-4.284v-7.519ZM185.134 267.004h-4.901v7.991h4.901v-7.991ZM193.702 267.004h-4.901v7.991h4.901v-7.991ZM91.11 267.004h-4.9v7.991h4.9v-7.991ZM98.841 267.004h-4.9v7.991h4.9v-7.991ZM106.482 267.004h-4.901v7.991h4.901v-7.991Z"/></g></svg>