<svg aria-hidden="true" style="position: absolute; width: 0; height: 0; overflow: hidden;" version="1.1"
    xmlns="http://www.w3.org/2000/svg" xmlns:xlink="http://www.w3.org/1999/xlink">
    <defs>
        <symbol id="icon-arrow" viewBox="0 0 20 32">
            <path fill='currentColor'
                d="M2.412 1.709c-0.32 0.136-0.593 0.323-0.822 0.554l-0 0c-0.462 0.458-0.747 1.092-0.747 1.794s0.286 1.336 0.747 1.794l0 0 10.863 10.838-10.863 10.838c-0.462 0.458-0.747 1.092-0.747 1.794s0.286 1.336 0.747 1.794l0 0c0.458 0.462 1.092 0.747 1.794 0.747s1.336-0.286 1.794-0.747l12.632-12.632c0.462-0.458 0.747-1.092 0.747-1.794s-0.286-1.336-0.747-1.794l-12.632-12.632c-0.458-0.462-1.093-0.748-1.795-0.748-0.35 0-0.684 0.071-0.987 0.2l0.017-0.006z">
            </path>
        </symbol>

        <symbol id="icon-cros" viewBox="0 0 32 32">
            <path fill="#fff" style="fill: var(--color1, #fff)" opacity="0.8"
                d="M28.336 0.392c0.237-0.219 0.555-0.353 0.904-0.353 0.736 0 1.333 0.597 1.333 1.333 0 0.348-0.134 0.666-0.352 0.903l0.001-0.001-13.029 13.040 13.029 13.040c0.251 0.243 0.407 0.583 0.407 0.959 0 0.736-0.597 1.333-1.333 1.333-0.376 0-0.716-0.156-0.959-0.407l-13.030-13.040-13.029 13.040c-0.241 0.242-0.575 0.391-0.944 0.391-0.737 0-1.334-0.597-1.334-1.334 0-0.368 0.149-0.701 0.39-0.943l13.032-13.040-13.032-13.040c-0.231-0.239-0.373-0.566-0.373-0.925 0-0.736 0.597-1.333 1.333-1.333 0.361 0 0.688 0.143 0.928 0.376l13.029 13.037z">
            </path>
        </symbol>
        <symbol id="icon-edit-profile" viewBox="0 0 32 32">
            <path fill="none" stroke="#fff" style="stroke: var(--color1, #fff)" stroke-linejoin="miter"
                stroke-linecap="butt" stroke-miterlimit="4" stroke-width="1.3333"
                d="M16 0.667c8.468 0 15.333 6.865 15.333 15.333s-6.865 15.333-15.333 15.333c-8.468 0-15.333-6.865-15.333-15.333s6.865-15.333 15.333-15.333z">
            </path>
            <path fill="#fff" style="fill: var(--color1, #fff)"
                d="M20.351 14.771l1.401-1.401c0.427-0.427 0.639-0.64 0.752-0.868 0.102-0.202 0.163-0.441 0.163-0.693s-0.060-0.491-0.167-0.702l0.004 0.009c-0.113-0.229-0.327-0.441-0.752-0.867-0.425-0.427-0.639-0.639-0.867-0.752-0.202-0.102-0.441-0.163-0.693-0.163s-0.491 0.060-0.702 0.167l0.009-0.004c-0.229 0.113-0.443 0.327-0.867 0.752l-1.42 1.419c0.769 1.298 1.83 2.349 3.098 3.082l0.041 0.022zM16.077 12.8l-5.36 5.36c-0.333 0.333-0.497 0.499-0.607 0.703-0.109 0.203-0.156 0.433-0.247 0.893l-0.48 2.4c-0.053 0.26-0.080 0.389-0.005 0.464s0.204 0.047 0.463-0.004l2.401-0.48c0.46-0.093 0.691-0.139 0.893-0.248s0.369-0.275 0.701-0.605l5.376-5.376c-1.271-0.805-2.321-1.845-3.112-3.067l-0.024-0.039z">
            </path>
        </symbol>

        <symbol id="icon-facebook-sign_in" viewBox="0 0 32 32">
            <path d="M0 0h32v32h-32z"></path>
        </symbol>
        <symbol id="icon-google-sign_in" viewBox="0 0 32 32">
            <path d="M0 0h32v32h-32z"></path>
        </symbol>

        <symbol id="icon-main-logo-strip" viewBox="0 0 48 48" xmlns="http://www.w3.org/2000/svg" fill="none">
            <path fill="#fff" d="M24 28.5a4.5 4.5 0 1 1 0-9 4.5 4.5 0 0 1 0 9" />
            <path fill="#fff" fill-rule="evenodd"
                d="M23.512 44c-11.046 0-20-8.954-20-20s8.954-20 20-20 20 8.954 20 20a19.99 19.99 0 0 1-9.46 17h9.96v3zm2-33a2 2 0 1 0-4 0 2 2 0 0 0 4 0m-13 13a2 2 0 1 1-4 0 2 2 0 0 1 4 0m26 0a2 2 0 1 1-4 0 2 2 0 0 1 4 0m-15 11a2 2 0 1 1 0 4 2 2 0 0 1 0-4m-7.5-11a7.5 7.5 0 1 0 15 0 7.5 7.5 0 0 0-15 0"
                clip-rule="evenodd" />
        </symbol>
        <symbol id="icon-logout" viewBox="0 0 32 32">
            <path fill="none" stroke="#fff" style="stroke: var(--color1, #fff)" stroke-linejoin="round"
                stroke-linecap="round" stroke-miterlimit="4" stroke-width="1.3333"
                d="M20.205 23.487v3.899c0 0 0 0.001 0 0.001 0 1.075-0.872 1.947-1.947 1.947-0.001 0-0.002 0-0.003 0h-13.64c-0.001 0-0.002 0-0.003 0-1.075 0-1.947-0.872-1.947-1.947 0-0.001 0-0.002 0-0.003v0-21.435c0-0.001 0-0.002 0-0.003 0-1.075 0.872-1.947 1.947-1.947 0.001 0 0.002 0 0.003 0h13.64c0.001 0 0.002 0 0.003 0 1.075 0 1.947 0.872 1.947 1.947 0 0.001 0 0.002 0 0.003v-0 3.897">
            </path>
            <path fill="none" stroke="#fff" style="stroke: var(--color1, #fff)" stroke-linejoin="round"
                stroke-linecap="round" stroke-miterlimit="4" stroke-width="2.6667"
                d="M13.385 16.667h13.64M27.025 16.667l-3.897-3.897M27.027 16.667l-3.897 3.897"></path>
        </symbol>
        <symbol id="icon-user" fill="currentColor" viewBox="0 0 18 20">
            <path fill-rule="evenodd"
                d="M12.268 1.575a5.5 5.5 0 0 0-6.536 0 5.5 5.5 0 0 0 .172 8.972 9.005 9.005 0 0 0-5.9 8.18 1 1 0 0 0 .008.137.75.75 0 0 0 .738.886h16.5a.75.75 0 0 0 .74-.877 1 1 0 0 0 .006-.145 9.005 9.005 0 0 0-5.9-8.181 5.5 5.5 0 0 0 .172-8.972m4.195 16.675a7.5 7.5 0 0 0-14.925 0zM6.172 8.828a4 4 0 1 1 5.656-5.656 4 4 0 0 1-5.656 5.656"
                clip-rule="evenodd"></path>
        </symbol>
        <symbol id="burger-icon" viewBox="0 0 30 22" xmlns="http://www.w3.org/2000/svg">
            <path d="M1.5 2.00146H28.5M1.5 11.0015H28.5M1.5 20.0015H28.5" stroke="currentColor" stroke-width="3"
                stroke-linecap="round" />
        </symbol>
        <symbol id="icon-heart" fill="currentColor" viewBox="0 0 18 16">
            <path
                d="M13.018 0C11.358 0 9.906.74 9 1.991 8.094.741 6.642 0 4.982 0a4.9 4.9 0 0 0-3.521 1.515A5.27 5.27 0 0 0 0 5.168c0 5.835 8.34 10.557 8.695 10.752a.62.62 0 0 0 .61 0C9.66 15.725 18 11.003 18 5.168a5.27 5.27 0 0 0-1.46-3.653A4.9 4.9 0 0 0 13.017 0M9 14.57c-1.467-.887-7.714-4.927-7.714-9.402a3.91 3.91 0 0 1 1.084-2.71 3.64 3.64 0 0 1 2.612-1.124c1.563 0 2.875.863 3.423 2.25.049.122.131.227.237.3a.63.63 0 0 0 .716 0 .66.66 0 0 0 .237-.3c.548-1.39 1.86-2.25 3.423-2.25.98.001 1.92.405 2.612 1.124a3.91 3.91 0 0 1 1.084 2.71c0 4.468-6.248 8.514-7.714 9.402" />
        </symbol>
        <symbol id="search-icon" fill="currentColor" viewBox="0 0 30 30">
            <path
                d="M 13 3 C 7.4886661 3 3 7.4886661 3 13 C 3 18.511334 7.4886661 23 13 23 C 15.396652 23 17.59741 22.148942 19.322266 20.736328 L 25.292969 26.707031 A 1.0001 1.0001 0 1 0 26.707031 25.292969 L 20.736328 19.322266 C 22.148942 17.59741 23 15.396652 23 13 C 23 7.4886661 18.511334 3 13 3 z M 13 5 C 17.430666 5 21 8.5693339 21 13 C 21 17.430666 17.430666 21 13 21 C 8.5693339 21 5 17.430666 5 13 C 5 8.5693339 8.5693339 5 13 5 z" />
        </symbol>
        <symbol id="icon-play" viewBox="0 0 16 16" fill="none" xmlns="http://www.w3.org/2000/svg">
            <path
                d="M14 7.13398C14.6667 7.51888 14.6667 8.48113 14 8.86603L5.75 13.6292C5.08333 14.0141 4.25 13.5329 4.25 12.7631L4.25 3.23686C4.25 2.46706 5.08333 1.98593 5.75 2.37083L14 7.13398Z"
                fill="currentColor" />
        </symbol>
        <symbol id="icon-star" viewBox="0 0 19 19" fill="none" xmlns="http://www.w3.org/2000/svg">
            <path
                d="M8.55466 1.25338C8.91305 0.481644 10.0102 0.481646 10.3686 1.25338L12.3437 5.50641C12.4894 5.82016 12.7869 6.03632 13.1304 6.07795L17.7856 6.64215C18.6303 6.74453 18.9693 7.78797 18.3461 8.3673L14.9116 11.56C14.6582 11.7956 14.5446 12.1453 14.6111 12.4848L15.5131 17.0865C15.6768 17.9215 14.7891 18.5664 14.0456 18.1527L9.9478 15.8729C9.6455 15.7047 9.27774 15.7047 8.97544 15.8729L4.87766 18.1527C4.1341 18.5664 3.24649 17.9215 3.41015 17.0865L4.31211 12.4848C4.37865 12.1453 4.26501 11.7956 4.01164 11.56L0.577109 8.3673C-0.0461013 7.78797 0.292935 6.74453 1.13765 6.64215L5.79287 6.07795C6.13629 6.03632 6.43381 5.82016 6.57952 5.50641L8.55466 1.25338Z"
                fill="currentColor" />
        </symbol>
        <symbol id="icon-checked" viewBox="0 0 16 16" fill="none" xmlns="http://www.w3.org/2000/svg">
            <path d="M2.5 7.25L7.5 12.25L13.5 3.75" stroke="currentColor" stroke-width="2" stroke-linecap="round" />
        </symbol>

        <symbol id="icon-heart_btn" viewBox="0 0 16 16" fill="none" xmlns="http://www.w3.org/2000/svg">
            <path
                d="M11.0408 10.72C9.79138 11.8143 8.51577 12.5924 8.00014 12.8892C7.48452 12.5924 6.20891 11.8143 4.95945 10.72C3.34255 9.30404 2.04276 7.59599 2.04248 5.88984C2.04348 5.13373 2.34429 4.40886 2.87896 3.87419C3.41362 3.33953 4.13849 3.03872 4.8946 3.03772C5.88493 3.03788 6.70234 3.45881 7.20046 4.12224L8.00014 5.1873L8.79982 4.12224C9.29795 3.45881 10.1153 3.03788 11.1057 3.03772C11.8618 3.03872 12.5867 3.33953 13.1213 3.87419C13.6559 4.40881 13.9567 5.1336 13.9578 5.88964C13.9576 7.59585 12.6578 9.30398 11.0408 10.72Z"
                fill="currentColor" stroke="currentColor" stroke-width="2" />
        </symbol>
    </defs>
</svg>