<svg aria-hidden="true" style="position: absolute; width: 0; height: 0; overflow: hidden;" version="1.1"
    xmlns="http://www.w3.org/2000/svg" xmlns:xlink="http://www.w3.org/1999/xlink">
    <defs>


        <symbol id="icon-cros" viewBox="0 0 32 32">
            <path fill="#fff" style="fill: var(--color1, #fff)" opacity="0.8"
                d="M28.336 0.392c0.237-0.219 0.555-0.353 0.904-0.353 0.736 0 1.333 0.597 1.333 1.333 0 0.348-0.134 0.666-0.352 0.903l0.001-0.001-13.029 13.040 13.029 13.040c0.251 0.243 0.407 0.583 0.407 0.959 0 0.736-0.597 1.333-1.333 1.333-0.376 0-0.716-0.156-0.959-0.407l-13.030-13.040-13.029 13.040c-0.241 0.242-0.575 0.391-0.944 0.391-0.737 0-1.334-0.597-1.334-1.334 0-0.368 0.149-0.701 0.39-0.943l13.032-13.040-13.032-13.040c-0.231-0.239-0.373-0.566-0.373-0.925 0-0.736 0.597-1.333 1.333-1.333 0.361 0 0.688 0.143 0.928 0.376l13.029 13.037z">
            </path>
        </symbol>
        <symbol id="icon-edit-profile" viewBox="0 0 32 32">
            <path fill="none" stroke="#fff" style="stroke: var(--color1, #fff)" stroke-linejoin="miter"
                stroke-linecap="butt" stroke-miterlimit="4" stroke-width="1.3333"
                d="M16 0.667c8.468 0 15.333 6.865 15.333 15.333s-6.865 15.333-15.333 15.333c-8.468 0-15.333-6.865-15.333-15.333s6.865-15.333 15.333-15.333z">
            </path>
            <path fill="#fff" style="fill: var(--color1, #fff)"
                d="M20.351 14.771l1.401-1.401c0.427-0.427 0.639-0.64 0.752-0.868 0.102-0.202 0.163-0.441 0.163-0.693s-0.060-0.491-0.167-0.702l0.004 0.009c-0.113-0.229-0.327-0.441-0.752-0.867-0.425-0.427-0.639-0.639-0.867-0.752-0.202-0.102-0.441-0.163-0.693-0.163s-0.491 0.060-0.702 0.167l0.009-0.004c-0.229 0.113-0.443 0.327-0.867 0.752l-1.42 1.419c0.769 1.298 1.83 2.349 3.098 3.082l0.041 0.022zM16.077 12.8l-5.36 5.36c-0.333 0.333-0.497 0.499-0.607 0.703-0.109 0.203-0.156 0.433-0.247 0.893l-0.48 2.4c-0.053 0.26-0.080 0.389-0.005 0.464s0.204 0.047 0.463-0.004l2.401-0.48c0.46-0.093 0.691-0.139 0.893-0.248s0.369-0.275 0.701-0.605l5.376-5.376c-1.271-0.805-2.321-1.845-3.112-3.067l-0.024-0.039z">
            </path>
        </symbol>

        <symbol id="icon-facebook-sign_in" viewBox="0 0 32 32">
            <path d="M0 0h32v32h-32z"></path>
        </symbol>
        <symbol id="icon-google-sign_in" viewBox="0 0 32 32">
            <path d="M0 0h32v32h-32z"></path>
        </symbol>

        <symbol id="icon-main-logo-strip" viewBox="0 0 48 48" xmlns="http://www.w3.org/2000/svg" fill="none">
            <path fill="#fff" d="M24 28.5a4.5 4.5 0 1 1 0-9 4.5 4.5 0 0 1 0 9" />
            <path fill="#fff" fill-rule="evenodd"
                d="M23.512 44c-11.046 0-20-8.954-20-20s8.954-20 20-20 20 8.954 20 20a19.99 19.99 0 0 1-9.46 17h9.96v3zm2-33a2 2 0 1 0-4 0 2 2 0 0 0 4 0m-13 13a2 2 0 1 1-4 0 2 2 0 0 1 4 0m26 0a2 2 0 1 1-4 0 2 2 0 0 1 4 0m-15 11a2 2 0 1 1 0 4 2 2 0 0 1 0-4m-7.5-11a7.5 7.5 0 1 0 15 0 7.5 7.5 0 0 0-15 0"
                clip-rule="evenodd" />
        </symbol>
        <symbol id="icon-logout" viewBox="0 0 32 32">
            <path fill="none" stroke="#fff" style="stroke: var(--color1, #fff)" stroke-linejoin="round"
                stroke-linecap="round" stroke-miterlimit="4" stroke-width="1.3333"
                d="M20.205 23.487v3.899c0 0 0 0.001 0 0.001 0 1.075-0.872 1.947-1.947 1.947-0.001 0-0.002 0-0.003 0h-13.64c-0.001 0-0.002 0-0.003 0-1.075 0-1.947-0.872-1.947-1.947 0-0.001 0-0.002 0-0.003v0-21.435c0-0.001 0-0.002 0-0.003 0-1.075 0.872-1.947 1.947-1.947 0.001 0 0.002 0 0.003 0h13.64c0.001 0 0.002 0 0.003 0 1.075 0 1.947 0.872 1.947 1.947 0 0.001 0 0.002 0 0.003v-0 3.897">
            </path>
            <path fill="none" stroke="#fff" style="stroke: var(--color1, #fff)" stroke-linejoin="round"
                stroke-linecap="round" stroke-miterlimit="4" stroke-width="2.6667"
                d="M13.385 16.667h13.64M27.025 16.667l-3.897-3.897M27.027 16.667l-3.897 3.897"></path>
        </symbol>
       
      
        <symbol id="icon-heart" fill="currentColor" viewBox="0 0 18 16">
            <path
                d="M13.018 0C11.358 0 9.906.74 9 1.991 8.094.741 6.642 0 4.982 0a4.9 4.9 0 0 0-3.521 1.515A5.27 5.27 0 0 0 0 5.168c0 5.835 8.34 10.557 8.695 10.752a.62.62 0 0 0 .61 0C9.66 15.725 18 11.003 18 5.168a5.27 5.27 0 0 0-1.46-3.653A4.9 4.9 0 0 0 13.017 0M9 14.57c-1.467-.887-7.714-4.927-7.714-9.402a3.91 3.91 0 0 1 1.084-2.71 3.64 3.64 0 0 1 2.612-1.124c1.563 0 2.875.863 3.423 2.25.049.122.131.227.237.3a.63.63 0 0 0 .716 0 .66.66 0 0 0 .237-.3c.548-1.39 1.86-2.25 3.423-2.25.98.001 1.92.405 2.612 1.124a3.91 3.91 0 0 1 1.084 2.71c0 4.468-6.248 8.514-7.714 9.402" />
        </symbol>
        <symbol id="search-icon" fill="currentColor" viewBox="0 0 30 30">
                        <path
                d="M 13 3 C 7.4886661 3 3 7.4886661 3 13 C 3 18.511334 7.4886661 23 13 23 C 15.396652 23 17.59741 22.148942 19.322266 20.736328 L 25.292969 26.707031 A 1.0001 1.0001 0 1 0 26.707031 25.292969 L 20.736328 19.322266 C 22.148942 17.59741 23 15.396652 23 13 C 23 7.4886661 18.511334 3 13 3 z M 13 5 C 17.430666 5 21 8.5693339 21 13 C 21 17.430666 17.430666 21 13 21 C 8.5693339 21 5 17.430666 5 13 C 5 8.5693339 8.5693339 5 13 5 z" />
        </symbol>
       
        </defs>
</svg>